<svg width="23" height="23" viewBox="0 0 23 23" fill="none" xmlns="http://www.w3.org/2000/svg">
<path d="M11.5 0C8.38542 0 7.97813 0.0239583 6.75625 0.071875C5.53438 0.119792 4.69583 0.311458 3.95312 0.598958C3.18646 0.886458 2.56354 1.29375 1.91667 1.91667C1.26979 2.56354 0.886458 3.18646 0.598958 3.95312C0.311458 4.69583 0.119792 5.51042 0.071875 6.75625C0.0239583 7.97813 0 8.38542 0 11.5C0 14.6146 0.0239583 15.0219 0.071875 16.2437C0.119792 17.4656 0.311458 18.3042 0.598958 19.0469C0.886458 19.8135 1.29375 20.4365 1.91667 21.0833C2.56354 21.7302 3.18646 22.1135 3.95312 22.401C4.69583 22.6885 5.51042 22.8802 6.75625 22.9281C7.97813 22.976 8.38542 23 11.5 23C14.6146 23 15.0219 22.976 16.2437 22.9281C17.4656 22.8802 18.3042 22.6885 19.0469 22.401C19.8135 22.1135 20.4365 21.7062 21.0833 21.0833C21.7302 20.4365 22.1135 19.8135 22.401 19.0469C22.6885 18.3042 22.8802 17.4896 22.9281 16.2437C22.976 15.0219 23 14.6146 23 11.5C23 8.38542 22.976 7.97813 22.9281 6.75625C22.8802 5.53438 22.6646 4.69583 22.401 3.95312C22.1135 3.18646 21.7062 2.56354 21.0833 1.91667C20.4365 1.26979 19.8135 0.886458 19.0469 0.598958C18.3042 0.311458 17.4656 0.119792 16.2437 0.071875C15.0219 0.0239583 14.6146 0 11.5 0ZM10.4698 2.08437C10.7812 2.08437 11.1167 2.08437 11.5 2.08437C14.5667 2.08437 14.926 2.08437 16.1479 2.15625C17.274 2.20417 17.8729 2.39583 18.2802 2.56354C18.8073 2.77917 19.1906 3.01875 19.5979 3.42604C20.0052 3.83333 20.2448 4.21667 20.4604 4.74375C20.6281 5.15104 20.7958 5.75 20.8677 6.87604C20.9156 8.09792 20.9396 8.45729 20.9396 11.524C20.9396 14.5906 20.9156 14.95 20.8677 16.1719C20.8198 17.2979 20.6281 17.8969 20.4604 18.3042C20.2448 18.8312 20.0052 19.2146 19.5979 19.6219C19.1906 20.0292 18.8073 20.2687 18.2802 20.4844C17.8729 20.6521 17.274 20.8198 16.1479 20.8917C14.926 20.9396 14.5667 20.9635 11.5 20.9635C8.43333 20.9635 8.07396 20.9396 6.85208 20.8917C5.72604 20.8437 5.12708 20.6521 4.71979 20.4844C4.19271 20.2687 3.80937 20.0292 3.40208 19.6219C2.99479 19.2146 2.75521 18.8312 2.53958 18.3042C2.37188 17.8969 2.20417 17.2979 2.13229 16.1719C2.08437 14.926 2.08437 14.5667 2.08437 11.5C2.08437 8.43333 2.08437 8.07396 2.15625 6.85208C2.20417 5.72604 2.39583 5.12708 2.56354 4.71979C2.77917 4.19271 3.01875 3.80937 3.42604 3.40208C3.83333 2.99479 4.21667 2.75521 4.74375 2.53958C5.15104 2.37188 5.75 2.20417 6.87604 2.13229C7.90625 2.08437 8.3375 2.06042 10.4698 2.08437ZM17.6333 3.97708C16.8667 3.97708 16.2437 4.6 16.2437 5.36667C16.2437 6.13333 16.8667 6.75625 17.6333 6.75625C18.4 6.75625 19.0229 6.13333 19.0229 5.36667C19.0229 4.6 18.4 3.97708 17.6333 3.97708ZM11.5 5.60625C8.24167 5.60625 5.58229 8.24167 5.58229 11.5C5.58229 14.7583 8.21771 17.3937 11.5 17.3937C14.7583 17.3937 17.3937 14.7583 17.3937 11.5C17.3937 8.24167 14.7583 5.60625 11.5 5.60625ZM11.5 7.66667C13.6083 7.66667 15.3333 9.39167 15.3333 11.5C15.3333 13.6083 13.6083 15.3333 11.5 15.3333C9.39167 15.3333 7.66667 13.6083 7.66667 11.5C7.66667 9.39167 9.39167 7.66667 11.5 7.66667Z" fill="white"/>
</svg>
