<svg width="20" height="20" viewBox="0 0 20 20" fill="none" xmlns="http://www.w3.org/2000/svg">
<path fill-rule="evenodd" clip-rule="evenodd" d="M15.1791 5.55566C12.9437 5.55566 11.6669 6.9087 11.1349 7.81261H11.0296L10.8157 5.89421H6.98638C6.98638 7.1344 7.09171 8.60141 7.09171 10.2941V20.0001H11.3477V11.9868C11.3477 11.5366 11.3477 11.198 11.4552 10.8584C11.7744 10.0696 12.3064 9.05393 13.4757 9.05393C14.9663 9.05393 15.6037 10.4081 15.6037 12.2125V20.0001H19.8597V11.6483C19.8597 7.47294 17.8391 5.55566 15.1791 5.55566ZM0.549805 20.0001H4.84094V5.55566H0.549805V20.0001ZM4.84094 2.22222C4.84094 3.44333 4.08999 4.44444 2.69537 4.44444C1.40803 4.44444 0.549805 3.44333 0.549805 2.33222C0.549805 1.11111 1.40803 0 2.69537 0C3.98379 0 4.84094 0.998889 4.84094 2.22222Z" fill="#262629"/>
</svg>
