<svg width="23" height="23" viewBox="0 0 23 23" fill="none" xmlns="http://www.w3.org/2000/svg">
<path d="M19.6133 19.6078H16.2265V14.2772C16.2265 13.0097 16.1893 11.3695 14.4401 11.3695C12.6537 11.3695 12.3932 12.7488 12.3932 14.2026V19.6078H9.00648V8.61102H12.2816V10.1021H12.3188C12.9887 8.94652 14.2168 8.27553 15.5566 8.31281C19.0178 8.31281 19.6505 10.5867 19.6505 13.5316L19.6133 19.6078ZM5.13592 7.11994C4.05664 7.11994 3.16343 6.22529 3.16343 5.14425C3.16343 4.06322 4.05664 3.16856 5.13592 3.16856C6.21521 3.16856 7.10842 4.06322 7.10842 5.14425C7.10842 6.22529 6.21521 7.11994 5.13592 7.11994ZM6.8479 19.6078H3.42395V8.61102H6.8479V19.6078ZM21.288 0H1.71198C0.781556 0 0.0372168 0.74554 0 1.64019V21.3225C0 22.2545 0.781556 23 1.71198 23H21.288C22.2185 23 22.9628 22.2545 23 21.3225V1.64019C23 0.74554 22.2185 0 21.288 0Z" fill="white"/>
</svg>
