<svg width="221" height="76" viewBox="0 0 221 76" fill="none" xmlns="http://www.w3.org/2000/svg">
<path d="M28.3253 73.0671C27.944 73.0671 27.5627 73.0671 27.0543 72.9396L30.1046 75.3624C30.3588 75.49 30.3588 75.6175 30.2317 75.8725C30.1046 76 29.9775 76 29.7233 75.8725L24.6395 71.9195C23.1144 70.7718 22.2247 69.2416 22.2247 66.9463C22.2247 63.5034 24.8937 60.8255 28.1982 60.8255C31.6297 60.8255 34.1716 63.6309 34.1716 66.9463C34.2987 70.2618 31.7568 73.0671 28.3253 73.0671ZM28.3253 72.4296C31.2484 72.4296 33.6632 70.1343 33.6632 66.8188C33.6632 63.5034 31.2484 61.2081 28.3253 61.2081C25.4021 61.2081 22.9873 63.5034 22.9873 66.8188C22.9873 70.1343 25.4021 72.4296 28.3253 72.4296Z" fill="white"/>
<path d="M41.543 66.3087C41.543 65.0336 41.543 64.2685 41.9243 64.2685C42.1784 64.2685 42.1784 64.5235 42.1784 64.7785V69.8792C42.1784 71.6644 41.2888 73.0671 39.0011 73.0671C36.7134 73.0671 35.8237 71.6644 35.8237 69.8792V66.1812C35.8237 64.906 35.8237 64.396 36.205 64.396C36.4592 64.396 36.4592 64.651 36.4592 64.906V70.0067C36.4592 71.6644 37.3489 72.5571 39.0011 72.5571C40.6533 72.5571 41.543 71.6644 41.543 70.0067V66.3087Z" fill="white"/>
<path d="M50.6938 72.302C50.8209 72.5571 50.6938 72.5571 50.5667 72.6846C49.9312 72.9396 49.0416 73.1947 48.0248 73.1947C45.3559 73.1947 43.5765 71.2819 43.5765 68.7316C43.5765 66.3087 45.3559 64.396 47.7706 64.396C49.55 64.396 50.6938 65.2886 50.8209 66.6913C50.8209 67.8389 50.3125 68.8591 48.4061 69.1141C46.1184 69.2416 44.4662 69.3692 44.4662 69.3692C44.4662 69.3692 44.4662 69.3692 44.3391 69.3692C44.5933 71.0269 45.9913 72.5571 48.1519 72.5571C49.0416 72.5571 49.8042 72.4296 50.3125 72.1745C50.5667 72.047 50.6938 72.047 50.6938 72.302ZM44.212 68.604C44.5933 68.604 47.0081 68.4765 48.4061 68.349C49.2958 68.2215 50.3125 67.839 50.1854 66.5638C50.1854 65.6712 49.4229 64.651 47.8977 64.651C45.483 64.7785 44.212 66.6913 44.212 68.604Z" fill="white"/>
<path d="M59.082 72.302C59.2091 72.5571 59.082 72.5571 58.9549 72.6846C58.3194 72.9396 57.4298 73.1947 56.413 73.1947C53.744 73.1947 51.9647 71.2819 51.9647 68.7316C51.9647 66.3087 53.744 64.396 56.1588 64.396C57.9382 64.396 59.082 65.2886 59.2091 66.6913C59.2091 67.8389 58.7007 68.8591 56.7943 69.1141C54.5066 69.2416 52.8544 69.3692 52.8544 69.3692C52.8544 69.3692 52.8544 69.3692 52.7273 69.3692C52.9815 71.0269 54.3795 72.5571 56.5401 72.5571C57.4298 72.5571 58.1923 72.4296 58.7007 72.1745C58.9549 72.047 58.9549 72.047 59.082 72.302ZM52.6002 68.604C52.9815 68.604 55.3963 68.4765 56.7943 68.349C57.684 68.2215 58.7007 67.839 58.5736 66.5638C58.5736 65.6712 57.8111 64.651 56.2859 64.651C53.744 64.7785 52.6002 66.6913 52.6002 68.604Z" fill="white"/>
<path d="M67.089 67.3289V72.557C67.089 72.8121 67.089 72.9396 66.8348 72.9396C66.5806 72.9396 66.5806 72.8121 66.5806 72.557V67.2013C66.5806 65.1611 65.4367 64.7785 64.2929 64.7785C62.6407 64.7785 61.4968 66.4362 61.4968 68.604V72.4295C61.4968 72.6846 61.4968 72.9396 61.2426 72.9396C60.7343 72.9396 60.7343 72.6846 60.7343 72.4295V64.651C60.7343 64.396 60.7343 64.2685 60.9884 64.2685C61.2426 64.2685 61.3697 64.5235 61.3697 65.7987V66.3087C61.8781 64.906 63.0219 64.2685 64.2929 64.2685C66.3264 64.2685 67.089 65.2886 67.089 67.3289Z" fill="white"/>
<path d="M71.0288 73.0671C70.0121 73.0671 69.5037 73.0671 68.8682 72.8121C68.4869 72.6846 68.4869 72.5571 68.614 72.4296C68.7411 72.1745 69.1224 72.302 69.3766 72.302C69.6308 72.4296 70.2663 72.5571 70.9017 72.5571C72.0456 72.5571 73.3165 72.047 73.3165 70.7718C73.3165 69.6242 72.2998 69.2416 71.0288 68.8591C69.6308 68.349 68.4869 67.839 68.4869 66.3087C68.4869 65.1611 69.3766 64.396 70.7746 64.396C71.5372 64.396 72.2998 64.5235 72.6811 64.651C72.9352 64.7785 72.9352 64.9061 72.9352 65.0336C72.9352 65.2886 72.6811 65.2886 72.4269 65.1611C72.0456 65.0336 71.6643 64.9061 70.9017 64.9061C69.885 64.9061 69.2495 65.4161 69.2495 66.3087C69.2495 67.4564 70.3934 67.839 71.5372 68.2215C73.0623 68.7316 74.0791 69.2416 74.0791 70.6443C73.952 71.792 73.1894 73.0671 71.0288 73.0671Z" fill="white"/>
<path d="M76.1126 72.4296C76.1126 72.6846 76.1126 72.9396 75.8584 72.9396C75.6042 72.9396 75.6042 72.6846 75.6042 72.4296V61.2081C75.6042 60.953 75.6042 60.8255 75.8584 60.8255C76.1126 60.8255 76.2397 61.0806 76.2397 62.3557V72.4296H76.1126Z" fill="white"/>
<path d="M84.7551 64.7785V72.5571C84.7551 72.8121 84.7551 72.9396 84.5009 72.9396C84.2467 72.9396 84.1196 72.6846 84.1196 71.4094V70.7718C83.6112 72.1745 82.5945 73.0671 81.1964 73.0671C79.0358 73.0671 77.7649 71.2819 77.7649 68.9866C77.7649 65.9262 79.6713 64.2685 81.4506 64.2685C82.4674 64.2685 83.4841 64.5235 84.2467 64.906C84.3738 64.396 84.3738 64.2685 84.628 64.2685C84.7551 64.2685 84.7551 64.396 84.7551 64.7785ZM84.1196 68.604V65.7987V65.4161C83.6112 65.1611 82.5945 64.7785 81.7048 64.7785C79.4171 64.7785 78.2733 66.4362 78.2733 68.8591C78.2733 70.7718 79.1629 72.5571 81.3235 72.5571C82.9758 72.5571 84.1196 70.5168 84.1196 68.604Z" fill="white"/>
<path d="M93.1432 67.3289V72.557C93.1432 72.8121 93.1432 72.9396 92.8891 72.9396C92.6349 72.9396 92.6349 72.8121 92.6349 72.557V67.2013C92.6349 65.1611 91.491 64.7785 90.3472 64.7785C88.695 64.7785 87.5511 66.4362 87.5511 68.604V72.4295C87.5511 72.6846 87.5511 72.9396 87.2969 72.9396C87.0427 72.9396 87.0427 72.6846 87.0427 72.4295V64.651C87.0427 64.396 87.0427 64.2685 87.2969 64.2685C87.5511 64.2685 87.6782 64.5235 87.6782 65.7987V66.3087C88.1866 64.906 89.3304 64.2685 90.6014 64.2685C92.2536 64.2685 93.1432 65.2886 93.1432 67.3289Z" fill="white"/>
<path d="M101.659 72.5571C101.659 72.8121 101.659 72.9396 101.404 72.9396C101.15 72.9396 101.023 72.6846 101.023 71.4094V70.7718C100.515 72.1745 99.4979 73.0671 98.0999 73.0671C95.9393 73.0671 94.5413 71.2819 94.5413 68.9866C94.5413 65.9262 96.4477 64.2685 98.3541 64.2685C99.3708 64.2685 100.388 64.5235 101.023 64.9061V62.2282C101.023 60.953 101.15 60.698 101.404 60.698C101.659 60.698 101.659 60.8255 101.659 61.0806V72.5571ZM101.023 68.604V65.4161C100.515 65.1611 99.4979 64.7785 98.6083 64.7785C96.3206 64.7785 95.1767 66.4363 95.1767 68.8591C95.1767 70.7718 96.0664 72.5571 98.227 72.5571C99.8792 72.5571 101.023 70.5168 101.023 68.604Z" fill="white"/>
<path d="M14.7257 27.0336V34.302C14.7257 34.6846 14.4715 35.0671 13.9631 35.0671H10.6587C10.2774 35.0671 9.8961 34.8121 9.8961 34.302V28.0537C9.8961 26.5235 9.26063 25.8859 7.98969 25.8859C6.59165 25.8859 5.5749 27.1611 5.44781 29.9665V34.302C5.44781 34.6846 5.19362 35.0671 4.68524 35.0671H1.76208C1.38079 35.0671 0.999512 34.8121 0.999512 34.302V17.4698C0.999512 17.0873 1.2537 16.7047 1.76208 16.7047H2.01627C4.81234 16.7047 5.82909 18.745 5.82909 20.9128V23.5906C6.71875 22.5705 7.98969 21.9329 9.38773 21.9329C12.5651 21.9329 14.7257 24.2282 14.7257 27.0336Z" fill="white"/>
<path d="M27.8168 33.792C27.9439 34.302 27.5626 34.5571 27.0542 34.6846C25.1478 35.0671 24.5124 35.1946 22.8601 35.1946C19.0473 35.1946 16.1241 32.2618 16.1241 28.5638C16.1241 24.8658 18.7931 21.9329 22.3518 21.9329C24.7665 21.9329 27.3084 22.953 27.6897 25.1208C28.1981 28.1812 26.2917 29.5839 23.2414 29.8389C22.4789 29.9664 21.7163 29.9664 20.9537 29.9664C21.335 30.7316 21.9705 31.1141 23.1143 31.1141C24.6395 31.1141 25.402 30.8591 26.2917 30.604C26.673 30.4765 27.0542 30.604 27.1813 31.2416C27.4355 31.8792 27.6897 33.1544 27.8168 33.792ZM20.8266 27.0336C21.4621 27.0336 22.2247 26.906 22.733 26.906C23.2414 26.906 23.7498 26.5235 23.7498 26.1409C23.7498 25.6309 23.1143 25.1208 22.3518 25.2483C21.2079 25.3758 20.8266 26.0134 20.8266 27.0336Z" fill="white"/>
<path d="M42.3056 22.698V34.302C42.3056 34.6846 42.0514 35.0671 41.5431 35.0671H41.2889C39.3825 35.0671 38.3657 34.302 37.8573 33.2819C36.9677 34.4295 35.6967 35.1946 34.0445 35.1946C30.7401 35.1946 28.5795 32.6443 28.5795 29.2013C28.5795 24.6107 31.3755 21.9329 34.1716 21.9329C36.078 21.9329 37.2219 22.5705 38.1115 23.2081C38.747 22.443 39.6367 21.9329 41.1618 21.9329H41.416C41.9244 22.0604 42.3056 22.3154 42.3056 22.698ZM37.6031 27.6711V26.5235C37.2219 26.2685 36.7135 26.0134 35.8238 26.0134C34.4258 26.0134 33.409 26.906 33.409 29.0738C33.409 30.4765 34.2987 31.2416 35.1884 31.2416C36.4593 31.1141 37.4761 30.349 37.6031 27.6711Z" fill="white"/>
<path d="M47.7706 35.0671H44.4662C44.0849 35.0671 43.7036 34.8121 43.7036 34.302V17.4698C43.7036 17.0873 44.0849 16.7047 44.4662 16.7047H44.5933C47.3893 16.7047 48.4061 18.745 48.4061 20.9128V34.302C48.5332 34.6846 48.1519 35.0671 47.7706 35.0671Z" fill="white"/>
<path d="M59.8446 34.8121C58.8279 35.0671 58.0653 35.1946 56.9215 35.1946C53.4899 35.1946 51.5835 33.2819 51.5835 30.2215V26.141H50.6938C50.3126 26.141 49.9313 25.8859 49.9313 25.5034V22.8255C49.9313 22.443 50.1855 22.1879 50.6938 22.1879H51.5835C51.7106 20.5302 52.7273 18.8725 55.2692 18.8725H55.5234C55.9047 18.8725 56.286 19.1275 56.286 19.6376V22.3155H59.4633C59.8446 22.3155 60.0988 22.5705 60.0988 22.953V23.2081C60.0988 25.1208 58.5737 26.2685 57.0485 26.2685H56.286V30.349C56.286 31.1141 56.6673 31.3691 57.3027 31.2416C58.0653 31.2416 58.955 30.9866 59.4633 30.8591C59.9717 30.7316 60.0988 30.9866 60.2259 31.3691C60.353 31.8792 60.6072 33.4094 60.7343 33.9195C60.7343 34.302 60.353 34.6846 59.8446 34.8121Z" fill="white"/>
<path d="M75.8584 27.0336V34.302C75.8584 34.6846 75.6042 35.0671 75.0959 35.0671H71.7914C71.4101 35.0671 71.0288 34.8121 71.0288 34.302V28.0537C71.0288 26.5235 70.3934 25.8859 69.1224 25.8859C67.7244 25.8859 66.7076 27.1611 66.5806 29.9665V34.302C66.5806 34.6846 66.3264 35.0671 65.818 35.0671H62.5135C62.1323 35.0671 61.751 34.8121 61.751 34.302V17.4698C61.751 17.0873 62.0052 16.7047 62.5135 16.7047H62.7677C65.5638 16.7047 66.5806 18.745 66.5806 20.9128V23.5906C67.4702 22.5705 68.7412 21.9329 70.1392 21.9329C73.8249 21.9329 75.8584 24.2282 75.8584 27.0336Z" fill="white"/>
<path d="M26.673 43.9933L23.2415 56.2349C23.1144 56.6175 22.7331 57 22.2247 57H17.5222C17.1409 57 16.6326 56.6175 16.5055 56.2349L13.8365 49.094L11.1675 56.2349C11.0404 56.6175 10.532 57 10.1508 57H5.44828C5.06699 57 4.68571 56.6175 4.55862 56.2349L0.99998 43.9933C0.872886 43.6108 1.12707 43.2282 1.50836 43.2282H2.27092C5.32118 43.2282 6.59212 44.6309 7.1005 46.5436C7.48178 47.9463 7.86306 49.8591 8.11725 51.7718C8.62563 49.8591 9.13401 47.8188 9.64238 46.5436C9.89657 45.651 10.6591 43.2282 12.0572 43.2282H15.7429C17.1409 43.2282 17.9035 45.651 18.1577 46.5436C18.539 47.8188 19.0474 49.8591 19.5557 51.7718C19.937 49.9866 20.3183 47.9463 20.5725 46.5436C21.0809 44.6309 22.3518 43.2282 25.4021 43.2282H26.0375C26.5459 43.2282 26.8001 43.4832 26.673 43.9933Z" fill="white"/>
<path d="M39.2554 55.5973C39.3825 56.1074 39.0012 56.4899 38.4928 56.6175C36.4593 57 35.8238 57.1275 34.0445 57.1275C29.9775 57.1275 26.9272 53.9396 26.9272 50.1141C26.9272 46.2886 29.7233 43.1007 33.5361 43.1007C36.078 43.1007 38.747 44.2483 39.2554 46.4161C39.8908 49.604 37.8573 51.1342 34.5529 51.3893C33.6632 51.5168 32.9007 51.5168 32.1381 51.6443C32.5194 52.5369 33.1549 52.9195 34.4258 52.9195C36.078 52.9195 36.8406 52.5369 37.8573 52.2819C38.2386 52.1544 38.6199 52.2819 38.747 52.9195C38.747 53.5571 39.1283 54.9597 39.2554 55.5973ZM31.8839 48.4564C32.6465 48.4564 33.282 48.3289 33.9174 48.3289C34.4258 48.3289 35.0613 47.9463 34.9342 47.4362C34.9342 46.9262 34.2987 46.4161 33.5361 46.4161C32.2652 46.6711 31.7568 47.4362 31.8839 48.4564Z" fill="white"/>
<path d="M45.2288 57H41.7972C41.4159 57 41.0347 56.6175 41.0347 56.2349V38.2551C41.0347 37.8725 41.4159 37.49 41.7972 37.49H42.0514C45.1017 37.49 45.9913 39.6577 45.9913 41.9531V56.2349C45.9913 56.6175 45.6101 57 45.2288 57Z" fill="white"/>
<path d="M52.2189 57H48.7873C48.4061 57 48.0248 56.6175 48.0248 56.2349V38.2551C48.0248 37.8725 48.4061 37.49 48.7873 37.49H49.0415C52.0918 37.49 52.9815 39.6577 52.9815 41.9531V56.2349C52.9815 56.6175 52.7273 57 52.2189 57Z" fill="white"/>
<path d="M69.5037 49.4765C69.5037 54.3222 66.3264 57.1275 63.2761 57.1275C61.4968 57.1275 60.0988 56.49 59.082 55.8524C58.4466 56.49 57.4298 57 56.0318 57H55.7776C55.3963 57 55.015 56.6175 55.015 56.2349V38.2551C55.015 37.8725 55.3963 37.49 55.7776 37.49H56.0318C59.082 37.49 59.9717 39.4027 59.9717 41.5705V44.3759C60.8613 43.4832 62.1323 43.1007 63.4032 43.1007C67.089 43.1007 69.5037 45.7785 69.5037 49.4765ZM64.6742 49.6041C64.6742 48.3289 64.2929 47.4363 63.0219 47.4363C61.4968 47.4363 60.2259 48.3289 60.0988 51.2618V52.5369C60.6072 52.792 61.2426 52.9195 61.8781 52.9195C63.6574 52.792 64.6742 51.8994 64.6742 49.6041Z" fill="white"/>
<path d="M83.2299 55.5973C83.357 56.1074 82.9757 56.4899 82.4673 56.6175C80.4338 57 79.7983 57.1275 78.019 57.1275C73.952 57.1275 70.9017 53.9396 70.9017 50.1141C70.9017 46.2886 73.6978 43.1007 77.5106 43.1007C80.0525 43.1007 82.7215 44.2483 83.2299 46.4161C83.8653 49.604 81.8318 51.1342 78.5274 51.3893C77.6377 51.5168 76.8752 51.5168 76.1126 51.6443C76.4939 52.5369 77.1293 52.9195 78.4003 52.9195C80.0525 52.9195 80.8151 52.5369 81.8318 52.2819C82.2131 52.1544 82.5944 52.2819 82.7215 52.9195C82.7215 53.5571 83.1028 54.9597 83.2299 55.5973ZM75.7313 48.4564C76.4939 48.4564 77.1293 48.3289 77.7648 48.3289C78.2732 48.3289 78.9087 47.9463 78.7816 47.4362C78.7816 46.9262 78.1461 46.4161 77.3835 46.4161C76.2397 46.6711 75.7313 47.4362 75.7313 48.4564Z" fill="white"/>
<path d="M89.7117 43.9933V56.2349C89.7117 56.6175 89.3304 57 88.9491 57H85.5176C85.1363 57 84.755 56.6175 84.755 56.2349V47.1812C84.755 44.8859 86.0259 43.2282 88.6949 43.2282H88.9491C89.4575 43.2282 89.7117 43.4832 89.7117 43.9933Z" fill="white"/>
<path d="M106.615 48.5839V56.2349C106.615 56.6175 106.234 57 105.853 57H102.421C102.04 57 101.659 56.6175 101.659 56.2349V49.604C101.659 48.0738 101.023 47.3087 99.7521 47.3087C98.227 47.3087 97.2102 48.7114 97.0831 51.6443V56.2349C97.0831 56.6175 96.7019 57 96.3206 57H92.889C92.5078 57 92.1265 56.6175 92.1265 56.2349V43.9933C92.1265 43.6107 92.5078 43.2282 92.889 43.2282H93.1432C95.0496 43.2282 96.1935 43.9933 96.7019 45.2685C97.7186 43.8658 99.1166 43.1007 100.896 43.1007C104.455 43.1007 106.615 45.5235 106.615 48.5839Z" fill="white"/>
<path d="M122.502 56.1074C122.502 60.8255 119.198 63.3759 114.622 63.3759C113.097 63.3759 111.064 62.9933 109.92 62.6108C109.411 62.4832 109.03 62.1007 109.157 61.5906C109.284 60.953 109.793 59.5504 109.92 59.0403C110.047 58.4027 110.555 58.2752 110.936 58.4027C111.445 58.5302 113.351 59.0403 114.495 59.0403C116.402 59.0403 117.545 58.2752 117.545 56.1074V55.4698C116.656 56.49 115.385 57 113.987 57C110.428 57 108.14 54.3222 108.14 50.6242C108.14 45.7785 111.064 42.9732 114.114 42.9732C116.147 42.9732 117.418 43.7383 118.308 44.3759C118.943 43.6108 119.96 43.1007 121.485 43.1007H121.739C122.121 43.1007 122.502 43.4832 122.502 43.8658V56.1074ZM117.545 49.094V47.9463C117.164 47.6913 116.529 47.4363 115.639 47.4363C114.114 47.4363 112.97 48.4564 112.97 50.6242C112.97 52.1544 113.86 52.9195 114.876 52.9195C116.401 52.792 117.418 51.8993 117.545 49.094Z" fill="white"/>
<path d="M93.2703 29.9664H89.8388V26.5235C89.8388 26.1409 89.5846 25.8859 89.2033 25.8859H85.3905C85.0092 25.8859 84.755 26.1409 84.755 26.5235V29.9664H81.3235C80.9422 29.9664 80.688 30.2215 80.688 30.604V34.4295C80.688 34.8121 80.9422 35.0671 81.3235 35.0671H84.755V38.5101C84.755 38.8926 85.0092 39.1476 85.3905 39.1476H89.2033C89.5846 39.1476 89.8388 38.8926 89.8388 38.5101V35.0671H93.2703C93.6516 35.0671 93.9058 34.8121 93.9058 34.4295V30.604C93.9058 30.2215 93.6516 29.9664 93.2703 29.9664Z" fill="url(#paint0_linear_140_3028)"/>
<path d="M173.467 64.7785C173.467 64.7785 173.34 64.906 172.958 64.906C172.45 64.906 172.069 64.651 171.814 64.5235C171.56 64.2685 171.052 64.0134 170.544 63.8859C169.654 63.8859 169.018 63.6309 168.51 62.9933C168.002 62.3557 167.747 61.5906 167.747 60.698C167.747 59.2953 168.256 58.2752 169.145 57.7651C169.527 57.5101 170.035 57.5101 170.416 57.5101C172.069 57.5101 173.085 58.7852 173.085 60.698C173.085 62.1007 172.577 63.1208 171.814 63.6309C171.942 63.7584 172.196 63.8859 172.323 63.8859C172.577 64.0134 172.831 64.1409 173.085 64.1409C173.34 64.1409 173.594 64.1409 173.594 64.1409L173.467 64.7785ZM171.433 59.1678C171.306 58.9128 171.052 58.4027 170.289 58.4027C169.908 58.4027 169.527 58.6577 169.273 58.9128C169.018 59.2953 169.018 59.9329 169.018 60.5705C169.018 61.5906 169.145 62.3557 169.527 62.6107C169.781 62.7383 170.035 62.8658 170.289 62.8658C171.179 62.8658 171.56 62.2282 171.56 60.5705C171.687 59.9329 171.56 59.5503 171.433 59.1678Z" fill="#E6E6E6"/>
<path d="M177.025 63.8859C176.898 63.7584 176.771 63.6309 176.644 63.3758C176.39 63.6309 175.882 63.7584 175.373 63.7584C174.738 63.7584 174.229 63.5034 173.975 62.9933C173.848 62.7383 173.848 62.4832 173.848 62.1007V59.1678L174.992 58.9128V61.8456C174.992 62.2282 174.992 62.4832 175.119 62.6107C175.119 62.7382 175.373 62.8658 175.5 62.8658C175.754 62.8658 176.136 62.6107 176.263 62.4832V59.2953L177.407 59.0403V62.6107C177.407 62.8658 177.534 63.2483 177.661 63.5033L177.025 63.8859Z" fill="#E6E6E6"/>
<path d="M179.948 61.8457C179.948 62.6108 180.33 62.9933 180.965 62.9933C181.346 62.9933 181.728 62.8658 182.109 62.4832L182.617 63.2483C182.109 63.6309 181.474 63.8859 180.838 63.8859C179.567 63.8859 178.677 62.9933 178.677 61.4631C178.677 60.5705 178.805 60.0604 179.313 59.6779C179.694 59.2953 180.203 59.0403 180.711 59.0403C181.219 59.0403 181.728 59.1678 181.982 59.5504C182.363 59.9329 182.617 60.5705 182.617 61.5906V61.8457H179.948ZM181.346 60.953C181.346 60.5705 181.346 60.443 181.219 60.3155C181.092 60.1879 180.965 60.0604 180.711 60.0604C180.203 60.0604 179.948 60.443 179.948 61.0806L181.346 60.953Z" fill="#E6E6E6"/>
<path d="M184.524 61.8457C184.524 62.6108 184.905 62.9933 185.541 62.9933C185.922 62.9933 186.303 62.8658 186.684 62.4832L187.193 63.2483C186.684 63.6309 186.049 63.8859 185.414 63.8859C184.143 63.8859 183.253 62.9933 183.253 61.4631C183.253 60.5705 183.38 60.0604 183.888 59.6779C184.27 59.2953 184.778 59.0403 185.286 59.0403C185.795 59.0403 186.303 59.1678 186.557 59.5504C186.939 59.9329 187.193 60.5705 187.193 61.5906V61.8457H184.524ZM185.922 60.953C185.922 60.5705 185.922 60.443 185.795 60.3155C185.668 60.1879 185.541 60.0604 185.286 60.0604C184.778 60.0604 184.524 60.443 184.524 61.0806L185.922 60.953Z" fill="#E6E6E6"/>
<path d="M190.497 63.7584V60.698C190.497 60.1879 190.37 60.0604 190.116 60.0604C189.862 60.0604 189.608 60.1879 189.226 60.443V63.7584H188.083V60.443C188.083 60.0604 188.083 59.6778 187.955 59.4228L188.972 59.1678C189.099 59.2953 189.099 59.5503 189.099 59.8054C189.226 59.6779 189.481 59.5503 189.608 59.4228C189.862 59.2953 190.116 59.1678 190.497 59.1678C191.006 59.1678 191.514 59.4228 191.641 59.8054C191.641 59.9329 191.768 60.1879 191.768 60.443V63.7584H190.497Z" fill="#E6E6E6"/>
<path d="M194.31 63.8859C193.802 63.8859 193.166 63.7584 192.404 63.3758L192.785 62.4832C193.166 62.7383 193.802 62.9933 194.31 62.9933C194.691 62.9933 194.946 62.7383 194.946 62.4832C194.946 62.2282 194.691 61.9731 194.183 61.9731L193.675 61.8456C193.42 61.8456 193.039 61.5906 192.785 61.3356C192.658 61.0805 192.531 60.8255 192.531 60.443C192.531 59.5503 193.293 58.9128 194.31 58.9128C195.073 58.9128 195.581 59.1678 195.962 59.2953L195.581 60.0604C195.073 59.8054 194.818 59.6778 194.437 59.6778C194.056 59.6778 193.802 59.8054 193.802 60.1879C193.802 60.443 193.929 60.5705 194.437 60.698L194.946 60.8255C195.454 60.953 195.708 61.0805 195.835 61.3356C195.962 61.5906 196.089 61.8456 196.089 62.1007C196.216 63.2483 195.454 63.8859 194.31 63.8859Z" fill="#E6E6E6"/>
<path d="M198.25 63.8859C197.742 63.8859 197.36 63.6309 197.233 63.2483C197.106 62.9933 197.106 62.8658 197.106 62.2282V58.7852C197.106 58.1476 197.106 57.7651 196.979 57.3825L198.25 57.1275C198.25 57.3825 198.25 57.6376 198.25 58.2752V61.8456C198.25 62.6107 198.25 62.7382 198.377 62.8658C198.377 62.9933 198.504 62.9933 198.631 62.9933H198.758L199.013 63.7584C198.758 63.8859 198.504 63.8859 198.25 63.8859Z" fill="#E6E6E6"/>
<path d="M202.698 64.0134C202.444 63.8859 202.19 63.6309 202.063 63.5033C201.936 63.6309 201.936 63.6309 201.809 63.7584C201.555 63.8859 201.3 64.0134 200.919 64.0134C199.902 64.0134 199.394 63.5033 199.394 62.6107C199.394 61.5906 200.156 61.0805 201.555 61.0805C201.682 61.0805 201.682 61.0805 201.809 61.0805V60.953C201.809 60.4429 201.682 60.3154 201.3 60.3154C200.919 60.3154 200.411 60.4429 200.029 60.8255L199.521 59.9329C199.775 59.8054 199.902 59.6778 200.284 59.5503C200.792 59.4228 201.173 59.2953 201.555 59.2953C202.317 59.2953 202.825 59.5503 203.08 60.0604C203.08 60.3154 203.207 60.4429 203.207 60.953V62.4832C203.207 62.9933 203.207 63.2483 203.588 63.5033L202.698 64.0134ZM201.682 61.7181C200.792 61.7181 200.538 61.8456 200.538 62.4832C200.538 62.8658 200.792 63.1208 201.046 63.1208C201.3 63.1208 201.555 62.9933 201.682 62.8658V61.7181Z" fill="#E6E6E6"/>
<path d="M206.638 63.7584V60.698C206.638 60.1879 206.511 60.0604 206.257 60.0604C206.003 60.0604 205.749 60.1879 205.367 60.443V63.7584H204.224V60.443C204.224 60.0604 204.224 59.6778 204.096 59.4228L205.113 59.1678C205.24 59.2953 205.24 59.5503 205.24 59.8054C205.367 59.6779 205.622 59.5503 205.749 59.4228C206.003 59.2953 206.257 59.1678 206.638 59.1678C207.147 59.1678 207.655 59.4228 207.782 59.8054C207.782 59.9329 207.909 60.1879 207.909 60.443V63.7584H206.638Z" fill="#E6E6E6"/>
<path d="M211.849 63.7584C211.849 63.6309 211.849 63.6309 211.722 63.5034C211.468 63.7584 211.087 63.8859 210.705 63.8859C209.561 63.8859 208.799 62.9933 208.799 61.5906C208.799 60.1879 209.561 59.1678 210.832 59.1678C211.214 59.1678 211.468 59.2953 211.595 59.4228C211.595 59.2953 211.595 59.0403 211.595 58.7852V57.255L212.739 57.3826V62.2282C212.739 63.3758 212.866 63.7584 212.866 63.8859H211.849V63.7584ZM211.595 60.3154C211.341 60.0604 211.214 60.0604 210.959 60.0604C210.451 60.0604 210.197 60.5705 210.197 61.5906C210.197 62.6107 210.451 62.8658 211.087 62.8658C211.341 62.8658 211.595 62.7383 211.722 62.6107V60.3154H211.595Z" fill="#E6E6E6"/>
<path d="M170.416 72.9396C169.654 72.9396 169.018 72.6846 168.51 72.1745C168.002 71.6644 167.747 70.8993 167.747 69.7517C167.747 68.604 168.002 67.7114 168.764 67.2013C169.145 66.8188 169.781 66.5638 170.416 66.5638C171.052 66.5638 171.687 66.8188 172.069 67.2013L171.687 67.7114C171.179 67.3289 170.798 67.2013 170.289 67.2013C169.527 67.2013 169.018 67.5839 168.764 68.2215C168.637 68.7315 168.51 69.2416 168.51 69.7517C168.51 70.5168 168.637 71.2819 168.891 71.6644C169.145 72.047 169.781 72.302 170.416 72.302C170.798 72.302 171.179 72.1745 171.433 72.047V70.1342H170.162L170.035 69.4966H172.069V72.4295C171.687 72.6846 171.052 72.9396 170.416 72.9396Z" fill="#E6E6E6"/>
<path d="M175.246 72.9396C173.975 72.9396 173.34 72.047 173.34 70.5168C173.34 69.1141 174.102 68.2215 175.246 68.2215C176.009 68.2215 176.517 68.604 176.771 68.9866C177.025 69.3691 177.152 69.8792 177.152 70.6443C177.28 72.1745 176.39 72.9396 175.246 72.9396ZM176.263 69.3691C176.136 68.9866 175.627 68.7315 175.246 68.7315C174.865 68.7315 174.483 68.859 174.356 69.2416C174.229 69.4966 174.102 69.8792 174.102 70.3893C174.102 71.0268 174.229 71.5369 174.356 71.9195C174.483 72.1745 174.865 72.4295 175.246 72.4295C175.754 72.4295 176.009 72.1745 176.263 71.7919C176.39 71.5369 176.39 71.2819 176.39 70.7718C176.39 70.0067 176.39 69.6242 176.263 69.3691Z" fill="#E6E6E6"/>
<path d="M180.076 72.8121H179.44L177.788 68.349L178.55 68.2215L179.567 71.2819C179.694 71.6644 179.821 72.047 179.821 72.047C179.821 72.047 179.948 71.6644 180.076 71.2819L181.092 68.349H181.855L180.076 72.8121Z" fill="#E6E6E6"/>
<path d="M183.126 70.6443C183.126 71.1544 183.126 71.5369 183.38 71.7919C183.634 72.1745 184.016 72.302 184.524 72.302C184.905 72.302 185.286 72.1745 185.668 71.9195L185.922 72.4295C185.541 72.8121 185.032 72.9396 184.397 72.9396C183.126 72.9396 182.363 72.047 182.363 70.5168C182.363 69.7517 182.49 69.2416 182.872 68.8591C183.253 68.4765 183.634 68.2215 184.27 68.2215C184.778 68.2215 185.159 68.349 185.541 68.7315C185.922 69.1141 186.049 69.4966 186.049 70.6443V70.7718H183.126V70.6443ZM184.905 69.1141C184.778 68.8591 184.397 68.7315 184.143 68.7315C183.507 68.7315 183.126 69.2416 183.126 70.1342H185.159C185.159 69.6242 185.032 69.3691 184.905 69.1141Z" fill="#E6E6E6"/>
<path d="M189.099 68.9866C189.099 68.9866 188.972 68.9866 188.845 68.9866C188.591 68.9866 188.337 69.1141 188.083 69.3691C187.828 69.6242 187.828 69.7517 187.828 70.1342V72.9396H187.066V69.4966C187.066 68.8591 186.939 68.4765 186.939 68.4765L187.701 68.349C187.701 68.349 187.828 68.7316 187.828 69.1141C188.21 68.604 188.591 68.349 189.099 68.349C189.226 68.349 189.354 68.349 189.354 68.349L189.099 68.9866Z" fill="#E6E6E6"/>
<path d="M192.531 72.8121V69.7517C192.531 69.2416 192.531 69.1141 192.404 68.9866C192.277 68.8591 192.149 68.8591 191.895 68.8591C191.514 68.8591 191.006 69.1141 190.624 69.4967V72.8121H189.989V69.3691C189.989 68.7316 189.862 68.4765 189.862 68.4765L190.497 68.349C190.497 68.349 190.624 68.7316 190.624 69.1141C191.133 68.604 191.514 68.4765 192.022 68.4765C192.531 68.4765 192.912 68.7316 193.166 69.1141C193.293 69.2416 193.293 69.4966 193.293 69.6242V73.0671H192.531V72.8121Z" fill="#E6E6E6"/>
<path d="M199.775 72.8121V69.4966C199.775 69.1141 199.521 68.8591 199.14 68.8591C198.758 68.8591 198.377 69.1141 197.996 69.4966V72.8121H197.233V69.6241C197.233 69.3691 197.233 69.1141 197.106 68.9866C196.979 68.859 196.852 68.8591 196.598 68.8591C196.217 68.8591 195.962 68.9866 195.454 69.4966V72.8121H194.819V69.3691C194.819 68.7315 194.691 68.349 194.691 68.349L195.327 68.2215C195.327 68.2215 195.454 68.604 195.454 68.8591C195.708 68.4765 196.344 68.2215 196.725 68.2215C197.106 68.2215 197.615 68.4765 197.742 68.9866C198.123 68.4765 198.758 68.2215 199.14 68.2215C199.775 68.2215 200.284 68.7315 200.284 69.4966V72.9396H199.775V72.8121Z" fill="#E6E6E6"/>
<path d="M202.698 70.6443C202.698 71.1544 202.698 71.5369 202.953 71.7919C203.207 72.1745 203.588 72.302 204.096 72.302C204.478 72.302 204.859 72.1745 205.24 71.9195L205.494 72.4295C205.113 72.8121 204.605 72.9396 203.969 72.9396C202.698 72.9396 201.936 72.047 201.936 70.5168C201.936 69.7517 202.063 69.2416 202.444 68.8591C202.825 68.4765 203.207 68.2215 203.842 68.2215C204.351 68.2215 204.732 68.349 205.113 68.7315C205.494 69.1141 205.622 69.4966 205.622 70.6443V70.7718H202.698V70.6443ZM204.478 69.1141C204.351 68.8591 203.969 68.7315 203.715 68.7315C203.08 68.7315 202.698 69.2416 202.698 70.1342H204.732C204.732 69.6242 204.605 69.3691 204.478 69.1141Z" fill="#E6E6E6"/>
<path d="M209.307 72.8121V69.7517C209.307 69.2416 209.307 69.1141 209.18 68.9866C209.053 68.8591 208.926 68.8591 208.672 68.8591C208.291 68.8591 207.782 69.1141 207.401 69.4967V72.8121H206.765V69.3691C206.765 68.7316 206.638 68.4765 206.638 68.4765L207.274 68.349C207.274 68.349 207.401 68.7316 207.401 69.1141C207.909 68.604 208.291 68.4765 208.799 68.4765C209.307 68.4765 209.689 68.7316 209.943 69.1141C210.07 69.2416 210.07 69.4966 210.07 69.6242V73.0671H209.307V72.8121Z" fill="#E6E6E6"/>
<path d="M213.247 68.8591H212.357V71.7919C212.357 72.302 212.485 72.4295 212.993 72.4295C213.247 72.4295 213.247 72.4295 213.374 72.302L213.501 72.8121C213.247 72.9396 212.993 72.9396 212.739 72.9396C212.485 72.9396 212.357 72.9396 212.103 72.8121C211.849 72.6846 211.722 72.4295 211.722 71.9195V68.8591H211.087V68.349H211.722C211.722 67.9664 211.849 67.2013 211.849 67.2013L212.612 67.0738C212.612 67.0738 212.485 67.8389 212.485 68.349H213.628L213.247 68.8591Z" fill="#E6E6E6"/>
<path d="M187.32 17.8524C186.049 17.9799 184.778 19.6376 185.286 21.5503C185.032 21.6779 184.524 21.5503 184.397 21.1678C184.27 21.8054 182.999 22.5705 181.982 22.443C182.49 21.9329 182.872 20.6577 183.888 20.0201C184.905 19.3826 185.414 18.8725 185.668 17.7248C185.159 17.9799 182.745 18.6175 182.109 17.8524C183.761 17.5973 185.668 16.7047 186.557 16.0671L186.176 15.6846C185.159 16.3222 183.761 16.7047 183.126 16.9597C182.872 14.9195 184.778 15.047 184.905 15.5571C185.668 14.6644 185.159 13.2618 184.524 13.1342C185.159 11.4765 184.524 10.5839 184.015 9.94632C183.888 11.604 181.982 11.9866 181.728 13.2618C181.601 12.2416 181.601 9.43625 181.474 8.03357C181.346 5.48323 178.169 4.59061 177.661 4.59061C175.627 4.71813 175.373 4.4631 175.373 3.44296C174.356 4.59061 174.61 5.73826 175.627 6.24833C175.5 7.01343 174.356 7.5235 173.594 7.65102C175.246 9.18122 177.279 8.2886 178.169 7.39598C178.296 7.26847 178.296 7.26847 178.423 7.26847C178.805 7.90605 179.059 8.92618 179.059 9.56377C177.407 9.43625 177.152 10.7114 177.152 11.094C179.186 10.2014 179.44 14.1544 179.948 14.792C179.44 14.792 178.55 13.5168 177.152 13.5168C175.5 13.3893 174.992 14.2819 174.356 14.2819C174.483 15.4295 175.881 16.0671 176.771 16.1946C176.263 17.3423 176.771 18.1074 177.661 18.4899C177.661 17.4698 179.059 17.0873 180.457 17.9799C182.236 19 183.126 19.1275 184.524 18.6175C184.27 19.1275 183.634 19.1275 182.872 19.8926C181.728 20.9128 181.728 22.3154 180.584 22.8255C181.982 23.4631 184.143 22.5705 184.397 22.0604C185.032 22.443 185.795 22.1879 185.922 21.8054C184.905 19.6376 186.557 18.3624 187.193 18.3624C187.32 18.4899 187.701 17.8524 187.32 17.8524ZM179.948 16.9597C179.186 16.7047 178.169 16.4497 177.534 17.3423C177.152 16.7047 177.661 15.9396 178.042 15.6846C176.517 15.6846 175.627 15.1745 175.373 14.792C176.009 14.4094 177.407 13.8993 178.55 14.792C179.313 15.4295 179.821 15.6846 180.711 16.0671C181.092 15.6846 180.965 15.8121 181.092 15.8121C180.33 15.302 179.948 10.9665 178.423 10.8389C178.678 10.3289 179.44 10.3289 180.076 10.4564C180.076 9.43625 179.694 7.90605 179.186 7.01343C180.076 6.50337 180.711 7.01343 181.092 8.16108C181.474 9.30873 181.092 12.3691 181.855 15.047L182.363 14.5369C182.109 13.0067 183.888 12.3691 184.27 11.604C184.397 12.6242 184.143 13.1342 183.888 13.5168C184.524 13.6443 184.778 14.1544 184.651 14.6644C183.126 14.4094 182.236 15.9396 182.617 17.2148C181.346 17.3423 180.584 17.2148 179.948 16.9597ZM175.627 5.10068C176.771 5.73826 177.152 4.59061 179.44 5.9933C177.915 6.50336 176.771 8.2886 175.119 7.77853C176.263 7.14095 176.136 6.24833 176.898 5.86578C176.517 5.86578 175.627 5.61075 175.627 5.10068Z" fill="#E6E6E6"/>
<path d="M202.825 11.9866C202.825 9.56377 202.698 7.65102 202.698 7.01343C202.825 7.01343 202.825 7.01343 202.953 7.14095C204.605 7.77854 204.986 9.8188 208.545 7.5235C206.638 7.77854 206.511 6.12082 205.749 6.12082C207.02 5.35572 207.147 3.698 207.147 3.698C206.003 4.59062 203.461 4.59062 203.08 4.97317C202.444 5.35572 201.554 5.86578 201.046 6.12082C199.521 6.88592 200.538 11.2215 200.411 12.8792C199.648 10.4564 197.996 10.8389 197.233 9.56377C196.598 10.7114 197.233 12.6242 197.487 13.1342C196.598 13.8993 196.852 15.302 197.106 15.5571C197.869 15.047 199.14 15.1745 199.394 16.0671C198.377 16.7047 196.598 16.8322 195.454 15.6846L195.073 16.1946C195.835 17.3423 197.996 17.7248 199.521 16.8322C199.521 17.0873 199.521 17.3423 199.394 17.7248C198.631 18.1074 197.615 18.3624 196.344 17.9799C196.471 19.1275 197.869 20.0201 199.14 20.4027C198.758 20.7852 198.123 20.9128 197.742 20.7852C197.996 21.4228 198.123 22.443 197.615 23.0806C196.979 22.698 196.598 22.1879 196.344 20.5302C196.089 18.8725 194.946 17.0873 193.929 16.8322C193.929 17.4698 193.929 17.2148 193.929 17.5973C196.471 19.3826 195.073 22.698 197.615 23.9732C198.504 22.8255 198.631 22.443 198.377 21.4228C199.267 21.1678 200.029 20.4027 200.284 19.7651C199.394 20.1477 197.996 19.3826 197.615 18.8725C199.14 18.8725 200.538 17.5973 202.063 16.0671C203.334 14.6644 205.113 14.9195 204.986 15.9396C205.876 15.8121 206.257 14.5369 206.003 13.7718C207.274 13.3893 208.418 12.3691 208.545 10.8389C206.765 11.604 204.478 10.2014 202.825 11.9866ZM204.986 13.2618C205.749 13.8993 205.494 14.6644 205.24 14.792C204.605 13.7718 202.698 14.1544 200.665 16.3222C200.538 16.4497 200.284 16.7047 200.156 16.8322C200.284 14.1544 198.123 14.1544 197.487 14.4094C197.615 13.6443 197.996 13.1342 198.25 13.0067C197.615 12.2416 197.487 11.349 197.36 10.7114C198.377 11.2215 199.902 12.3691 200.156 14.5369L200.792 14.0269C200.538 10.3289 200.665 10.3289 200.665 7.77854C200.665 7.39598 200.665 6.63088 201.809 6.63088C201.809 7.5235 201.936 10.0738 201.936 13.5168H202.317C202.698 12.4967 203.969 11.4765 205.367 11.4765C206.384 11.604 206.765 11.4765 207.274 11.2215C207.147 12.6242 205.367 13.1342 204.986 13.2618ZM202.063 6.24833C202.825 5.73827 203.207 5.48323 203.588 5.2282C204.223 5.2282 205.24 5.2282 205.876 4.84565C205.24 5.61075 205.113 5.9933 204.096 6.12082C205.494 6.24833 206.13 7.5235 206.765 7.65102C204.478 8.41612 204.223 6.12082 202.063 6.24833Z" fill="#E6E6E6"/>
<path d="M193.293 20.0201C193.166 20.0201 193.039 20.0201 193.039 20.1477C192.912 20.1477 192.785 20.1477 192.658 20.1477V19.3826C192.785 19.3826 192.912 19.1275 192.912 19C192.912 18.745 192.785 18.6175 192.531 18.6175C192.277 18.6175 192.15 18.745 192.15 19C192.15 19.1275 192.277 19.255 192.404 19.3826V20.1477C192.277 20.1477 192.15 20.1477 192.022 20.1477C192.022 20.0201 191.768 19.8926 191.641 19.8926C191.387 19.8926 191.26 20.0201 191.26 20.2752C191.26 20.5302 191.387 20.6577 191.641 20.6577C191.768 20.6577 191.895 20.5302 192.022 20.5302C192.15 20.5302 192.277 20.5302 192.404 20.5302V21.6779C192.277 21.8054 192.15 21.9329 192.15 22.0604C192.15 22.3154 192.277 22.443 192.531 22.443C192.785 22.443 192.912 22.3154 192.912 22.0604C192.912 21.9329 192.785 21.8054 192.658 21.6779V20.6577C192.785 20.6577 192.912 20.6577 193.039 20.6577C193.039 20.7852 193.293 20.9128 193.42 20.9128C193.675 20.9128 193.802 20.7852 193.802 20.5302C193.802 20.2752 193.42 20.0201 193.293 20.0201Z" fill="#E6E6E6"/>
<path d="M189.989 19.8926C189.862 19.8926 189.735 20.0201 189.608 20.1477C189.481 20.1477 189.353 20.1477 189.226 20.1477V19.3826C189.353 19.255 189.481 19.255 189.481 19C189.481 18.745 189.353 18.6175 189.099 18.6175C188.845 18.6175 188.718 18.745 188.718 19C188.718 19.1275 188.845 19.255 188.972 19.3826V20.1477C188.845 20.1477 188.718 20.1477 188.591 20.2752C188.464 20.1477 188.464 20.1477 188.337 20.1477C188.083 20.1477 187.955 20.2752 187.955 20.5302C187.955 20.7852 188.083 20.9128 188.337 20.9128C188.464 20.9128 188.591 20.7852 188.718 20.6577C188.845 20.6577 188.972 20.6577 189.099 20.6577V21.6779C188.972 21.6779 188.845 21.9329 188.845 22.0604C188.845 22.3154 188.972 22.443 189.226 22.443C189.481 22.443 189.608 22.3154 189.608 22.0604C189.608 21.9329 189.481 21.8054 189.353 21.6779V20.5302C189.481 20.5302 189.608 20.5302 189.735 20.5302C189.862 20.6577 189.862 20.6577 190.116 20.6577C190.37 20.6577 190.497 20.5302 190.497 20.2752C190.37 20.0201 190.116 19.8926 189.989 19.8926Z" fill="#E6E6E6"/>
<path d="M195.073 23.0805C194.818 21.5503 194.31 17.2148 194.183 15.8121H193.548C193.548 16.0671 193.548 16.3221 193.675 16.7047C192.912 16.4497 191.895 16.3221 190.751 16.3221C189.735 16.3221 188.718 16.4497 187.828 16.7047C187.828 16.3221 187.828 15.9396 187.955 15.8121H187.32C187.32 17.2148 186.684 21.5503 186.43 23.0805C186.049 23.208 185.795 23.5906 185.795 24.3557C185.795 24.3557 189.353 24.3557 190.751 24.3557C192.15 24.3557 195.708 24.3557 195.708 24.3557C195.708 23.7181 195.454 23.3356 195.073 23.0805ZM190.751 23.0805C190.243 24.2282 189.099 24.1007 188.21 23.5906C187.828 23.3356 187.447 23.208 187.066 23.0805C187.193 22.0604 187.447 20.0201 187.701 18.2349C188.845 17.7248 190.37 17.5973 190.751 19C191.133 17.5973 192.531 17.7248 193.802 18.2349C194.056 19.8926 194.31 21.9329 194.437 23.0805C194.056 23.0805 193.675 23.3356 193.293 23.5906C192.277 24.1007 191.26 24.2282 190.751 23.0805Z" fill="#E6E6E6"/>
<path d="M183.126 24.8658C185.159 25.6309 187.447 26.0134 189.989 24.8658C189.608 26.0134 189.226 26.651 188.591 27.0336C188.972 27.9262 189.481 28.9463 189.735 29.8389C190.37 30.2215 190.243 30.9866 190.116 31.4967C189.989 32.0067 188.464 32.5168 188.082 32.3893C187.574 32.2618 187.574 32.0067 187.32 32.0067C186.684 32.0067 184.651 34.047 182.617 32.1342V28.0537C183.38 27.6712 184.015 27.2886 184.397 26.651C184.015 26.396 183.38 25.6309 183.126 24.8658ZM185.286 26.651C184.778 27.4161 184.27 27.9262 183.253 28.4363V31.7517C184.524 32.8993 186.176 31.8792 186.812 31.4967C186.557 31.1141 186.557 30.9866 186.43 30.604C184.778 30.7316 184.143 29.9665 183.888 28.6913C183.888 28.6913 184.143 28.4363 184.524 28.3087C185.032 30.2215 186.176 29.9665 186.939 29.8389C187.447 29.3289 188.21 29.2014 188.845 29.2014C188.718 28.4363 188.21 27.5436 187.701 26.651C188.082 26.396 188.718 26.0134 188.972 25.5034C186.812 26.2685 185.795 26.0134 184.015 25.5034C184.524 26.141 184.905 26.5235 185.286 26.651ZM189.099 29.9665C188.718 29.8389 187.574 30.2215 187.447 30.4765C187.32 30.7316 187.574 31.2416 187.955 31.6242C188.21 31.7517 189.226 31.4967 189.481 31.2416C189.608 30.9866 189.481 30.094 189.099 29.9665Z" fill="#E6E6E6"/>
<path d="M198.886 27.5436C198.886 26.2685 197.996 25.1208 196.598 25.1208C195.327 25.1208 193.675 25.7584 193.548 26.9061C191.641 28.0537 190.751 29.0738 191.006 29.9665C190.37 30.604 190.879 32.0067 192.785 31.1141C192.277 31.6242 192.15 32.2618 192.15 32.7718H198.504C197.869 29.3289 198.886 29.9665 198.886 27.5436ZM196.979 27.2886C196.598 27.1611 195.2 27.1611 194.818 28.1812C194.564 28.1812 194.31 28.0537 194.056 27.9262C193.929 28.1812 193.548 28.3087 193.166 28.4363C193.548 29.2014 194.183 29.0738 194.691 28.6913C194.691 28.8188 194.691 28.8188 194.691 28.9463C194.691 30.604 196.471 31.1141 197.615 30.4765C197.487 30.9866 197.487 31.7517 197.615 32.2618H193.166C193.293 31.7517 193.802 31.2416 194.31 30.8591L193.929 30.2215C193.42 30.4765 193.039 30.604 192.531 30.7316C191.26 31.1141 191.387 30.2215 192.658 29.8389V29.4564H191.895C192.15 28.5638 193.802 27.5436 194.564 27.2886C194.564 26.396 195.708 26.0134 196.725 26.0134C197.996 26.0134 198.25 27.2886 198.25 27.6712C198.25 28.1812 198.123 29.4564 197.487 29.8389C196.471 30.349 195.708 29.5839 195.708 28.9463C195.708 28.1812 196.217 27.7987 197.106 27.9262C197.742 27.9262 197.615 27.4161 196.979 27.2886Z" fill="#E6E6E6"/>
<path d="M196.852 39.7852V38.5101V38.255H196.598H196.217C196.217 36.5973 195.835 35.4497 195.073 34.6846L194.818 34.4295L194.564 34.6846C193.802 35.4497 193.42 36.5973 193.42 38.255H193.039H192.785V38.5101V39.6577C191.895 39.9128 191.387 40.4228 190.624 40.9329L191.006 41.443C192.15 40.5503 192.912 40.0403 194.818 40.0403C196.852 40.0403 197.742 40.9329 198.25 41.8255L198.758 41.443C198.377 40.8054 197.869 40.1678 196.852 39.7852ZM194.818 35.3222C195.327 35.9597 195.581 36.9799 195.581 38.1275H194.056C194.056 36.8524 194.31 35.9597 194.818 35.3222ZM193.293 39.5302V38.8926H196.217V39.5302C195.835 39.4027 195.327 39.4027 194.691 39.4027C194.056 39.4027 193.802 39.4027 193.293 39.5302Z" fill="#E6E6E6"/>
<path d="M196.344 42.5906C196.471 42.0805 196.344 41.5705 196.089 41.3154C195.835 41.0604 195.327 40.8054 194.818 40.9329L195.454 41.5705L194.437 42.4631L193.929 41.953C193.929 41.953 194.056 41.8255 194.31 41.5705C193.929 41.1879 193.42 40.8054 192.785 40.9329C192.531 41.5705 192.785 42.208 193.166 42.5906C193.42 42.3356 193.548 42.208 193.548 42.208L194.056 42.7181L192.785 43.7382L193.166 44.2483L194.437 43.1007L194.818 43.6107C194.818 43.6107 194.564 43.9933 194.946 44.3758C195.2 44.1208 195.708 43.7382 195.962 43.4832C195.581 43.1007 195.2 43.2282 195.2 43.2282L194.818 42.7181L195.835 41.8255L196.344 42.5906Z" fill="#E6E6E6"/>
<path d="M188.464 35.3222C188.337 34.4295 187.32 34.302 186.812 34.6846C186.303 34.302 185.413 34.4295 185.159 35.3222C183.507 35.0671 183.761 36.5973 183.888 36.9799C184.015 37.3624 184.524 38.3826 184.778 39.0201H184.651C184.524 39.4027 184.524 39.9128 184.651 40.1678C184.778 40.1678 184.778 40.1678 184.905 40.2953C184.778 40.8054 184.397 41.5705 184.27 41.953C184.524 42.0805 184.778 42.2081 185.032 42.3356C185.032 42.3356 185.032 42.5906 184.905 42.8456C185.286 42.9732 186.176 43.1007 186.812 43.1007C187.32 43.1007 188.21 42.9732 188.718 42.8456C188.591 42.5906 188.591 42.3356 188.591 42.3356C188.972 42.2081 189.099 42.2081 189.353 41.953C189.226 41.5705 188.845 40.8054 188.718 40.2953C188.845 40.2953 188.845 40.2953 188.972 40.1678C188.972 39.7852 188.972 39.2752 188.972 39.0201H188.845C189.099 38.3826 189.608 37.3624 189.735 36.9799C189.862 36.5973 189.989 35.0671 188.464 35.3222ZM186.812 35.3222C186.812 34.9396 188.082 34.8121 187.828 35.7047C187.574 36.7248 187.32 37.745 187.066 38.7651C186.939 38.7651 186.812 38.7651 186.812 38.7651C186.684 38.7651 186.557 38.7651 186.557 38.7651C186.303 37.745 186.049 36.7248 185.795 35.7047C185.541 34.8121 186.684 34.9396 186.812 35.3222ZM188.337 39.4027C188.337 39.5302 188.337 39.7852 188.337 39.9128C187.955 40.0403 187.193 40.0403 186.684 40.0403C186.176 40.0403 185.414 40.0403 185.032 39.9128C185.032 39.7852 185.032 39.5302 185.032 39.4027C185.286 39.2752 186.303 39.2752 186.684 39.2752C187.066 39.2752 188.082 39.4027 188.337 39.4027ZM184.524 36.7248C184.143 35.8322 185.032 35.5772 185.159 36.0872C185.413 36.8524 185.795 38 186.049 38.7651C185.795 38.7651 185.541 38.7651 185.414 38.7651C185.286 38.6376 184.905 37.6175 184.524 36.7248ZM188.718 41.698C188.464 41.8255 188.21 41.8255 187.955 41.953C187.955 42.2081 188.082 42.3356 188.082 42.4631C187.701 42.5906 187.193 42.5906 186.812 42.5906C186.43 42.5906 185.922 42.5906 185.541 42.4631C185.541 42.3356 185.668 42.0805 185.668 41.953C185.414 41.953 185.159 41.8255 184.905 41.698C185.032 41.3154 185.159 40.9329 185.286 40.4228C185.795 40.5503 186.176 40.5503 186.684 40.5503C187.193 40.5503 187.701 40.5503 188.082 40.4228C188.337 40.9329 188.591 41.3154 188.718 41.698ZM189.099 36.7248C188.718 37.6175 188.337 38.6376 188.21 38.8926C187.955 38.8926 187.828 38.8926 187.574 38.8926C187.828 38.1275 188.21 36.9799 188.464 36.2148C188.591 35.7047 189.481 35.8322 189.099 36.7248Z" fill="#E6E6E6"/>
<path d="M185.414 27.6711C185.922 27.7987 186.176 27.6711 186.557 27.6711C186.685 27.6711 187.066 27.7987 187.066 28.3087C187.066 28.5638 187.066 28.6913 187.193 28.8188C186.812 28.8188 186.43 28.9463 186.049 28.8188C185.668 28.5638 185.795 28.0537 185.414 27.6711Z" fill="#E6E6E6"/>
<path d="M221 20.6577C220.746 20.6577 220.364 20.7852 220.11 20.9128C220.619 20.4027 221 19.6376 221 19.1275C220.746 19.255 220.237 19.3826 219.729 19.5101C220.619 18.745 221.127 17.8524 220.873 16.7047C220.619 16.8322 220.237 17.0873 219.856 17.2148C220.619 16.0671 220.619 14.9195 220.237 14.2819C219.856 14.6644 219.475 15.047 218.966 15.302C219.221 13.8993 219.221 13.0067 218.712 12.3691C218.077 13.5168 217.568 14.2819 216.806 15.302C216.806 14.4094 216.806 13.2617 216.17 12.6242C216.17 12.6242 216.043 13.8993 215.535 14.2819C215.408 13.0067 215.027 12.3691 214.518 11.7315C214.518 11.7315 214.518 13.0067 214.137 13.7718C213.883 12.6242 213.247 11.8591 212.612 11.094C212.612 13.5168 211.976 17.9799 210.07 21.0403C209.816 22.8255 209.689 25.5034 206.765 27.1611C206.384 26.906 205.622 26.5235 204.605 26.5235C204.351 25.1208 206.13 23.9732 207.655 22.953C209.18 21.9329 209.816 21.0403 209.816 19.7651C209.816 18.3624 208.799 17.7248 207.782 17.7248C206.384 17.5973 205.113 19 204.859 19.5101C204.478 19.7651 203.207 20.1477 202.698 20.2752C202.19 20.4027 201.555 20.6577 201.173 21.0403C201.427 21.1678 202.063 21.2953 202.317 21.1678C202.825 21.0403 204.351 20.7852 205.876 20.6577C206.384 20.9128 207.274 21.4228 206.384 22.0604C205.113 22.8255 204.605 23.0805 202.825 23.9732C200.029 25.5034 200.919 29.2013 201.555 29.4564C201.555 30.7315 202.698 33.0268 203.461 33.792C203.842 35.3222 203.334 37.745 202.825 38.7651C202.444 37.745 201.809 35.5772 201.3 34.302C201.809 31.8792 201.046 30.7315 200.538 30.349C200.029 29.9664 199.267 30.094 198.631 30.8591C199.394 30.7316 199.775 31.8792 199.648 32.8993C199.648 34.1745 199.267 35.1946 198.377 35.1946C198.504 36.3423 199.648 36.5973 200.284 36.0873C200.411 36.3423 200.792 37.745 201.3 39.1477C201.555 39.9128 201.809 40.6779 202.063 41.0604C202.19 41.443 203.588 41.5705 203.842 41.0604C204.096 40.4228 204.224 39.9128 204.605 39.1477C204.859 38.6376 205.24 37.8725 205.749 36.8524C206.13 37.4899 206.638 38.5101 206.893 39.1477C207.02 39.5302 207.147 39.7852 207.147 39.7852C207.274 40.8054 207.147 44.6309 206.893 46.7987C203.842 45.906 202.953 47.4362 203.207 48.5839C203.588 48.0738 204.224 48.2013 204.605 48.4564C204.478 49.2215 204.732 49.8591 205.622 50.1141C206.511 47.8188 209.689 48.3289 209.943 48.4564C209.943 47.9463 210.324 46.7987 208.799 46.6711C208.799 44.6309 209.053 42.2081 209.18 41.698C209.307 41.1879 209.307 40.8054 209.053 40.0403C208.926 39.7852 208.926 39.5302 208.799 39.1477C208.545 38.3826 208.418 37.2349 208.418 36.0873C208.672 36.3423 209.434 36.5973 209.816 36.4698C210.197 38 210.705 37.6175 210.96 38.255C211.087 38.6376 211.087 38.8926 211.214 39.1477C211.214 39.4027 211.341 39.6577 211.468 39.9128C212.612 39.9128 213.501 39.6577 214.137 39.1477C214.391 39.0201 214.518 38.8926 214.645 38.6376C214.391 36.9799 213.883 36.2148 213.12 35.1946C212.866 33.9195 212.23 32.6443 211.468 31.4966C212.485 31.1141 213.629 30.2215 214.264 29.7114C214.772 29.7114 215.408 29.2013 215.408 28.4362C215.662 28.4362 215.916 28.4362 216.17 28.3087C216.17 28.0537 216.043 27.6711 216.043 27.5436C216.425 27.5436 216.806 27.5436 217.187 27.5436C217.06 27.2886 216.933 26.906 216.806 26.651C217.187 26.651 217.696 26.651 218.077 26.651C217.823 26.2685 217.696 25.8859 217.568 25.5034C218.077 25.5034 218.712 25.3758 219.348 25.2483C219.221 24.9933 218.966 24.8658 218.585 24.4832C220.11 23.9732 220.746 22.953 220.873 22.5705C220.619 22.5705 220.237 22.698 219.983 22.698C220.364 22.0604 221 21.4228 221 20.6577ZM213.247 13.7718C213.628 14.4094 213.883 15.5571 213.883 16.4497C214.391 15.9396 214.645 15.1745 214.772 14.6644C215.027 15.047 214.899 16.1946 214.899 16.7047C215.408 16.1946 215.789 15.6846 216.043 15.047C216.17 15.5571 216.17 15.9396 216.043 16.3222C214.899 17.4698 212.993 19.1275 211.087 20.7852C212.23 18.6175 212.866 16.7047 213.247 13.7718ZM203.715 39.1477C203.588 39.5302 203.461 39.9128 203.334 40.4228C203.207 40.8054 202.317 40.6779 202.19 40.4228C202.063 40.1678 201.936 39.6577 201.682 39.1477C201.173 37.745 200.411 35.8322 200.284 35.0671C199.902 35.7047 199.521 35.9597 199.14 35.5772C200.665 34.9396 200.157 30.9866 199.521 30.7315C200.284 30.094 201.046 32.5168 200.538 34.302C200.919 35.5772 201.809 38.1275 202.19 39.1477C202.317 39.4027 202.317 39.5302 202.317 39.5302C202.444 39.9128 202.825 39.7852 202.953 39.5302C202.953 39.4027 203.08 39.2752 203.08 39.1477C203.461 38 204.096 35.7047 203.969 34.1745C204.605 34.302 204.859 34.9396 205.113 35.7047C204.732 37.1074 204.096 38 203.715 39.1477ZM219.221 23.2081C218.839 23.5906 217.696 24.1007 216.425 24.1007C216.679 24.3557 217.187 24.6107 217.441 24.7383C217.06 24.8658 216.552 24.8658 216.043 24.8658C216.297 25.2483 216.552 25.7584 216.679 26.0134C216.297 26.0134 215.916 26.0134 215.535 26.0134C215.789 26.396 215.789 26.651 216.043 26.906C215.789 26.906 215.154 26.906 214.899 26.906C215.027 27.1611 215.154 27.5436 215.281 27.7987C215.154 27.7987 214.772 27.7987 214.645 27.7987C213.374 29.5839 211.468 31.4966 208.036 31.3691C208.163 31.6242 208.163 32.0067 208.291 32.0067C208.799 32.0067 209.816 31.8792 210.578 31.7517C211.087 32.3893 212.103 33.792 212.612 35.8322C212.993 36.0873 213.628 37.1074 213.883 38.5101C213.247 38.8926 212.739 39.0201 211.976 39.1477C211.722 37.4899 210.832 37.3624 210.324 35.9597C209.689 36.0873 208.926 35.5772 208.672 34.8121H207.909C207.782 36.4698 208.163 38 208.418 39.2752C208.545 39.9128 208.672 40.4228 208.672 40.9329C208.799 41.953 208.418 45.7785 208.291 47.3087C209.053 47.3087 209.561 47.4362 209.561 48.0738C208.418 47.6913 206.384 47.9463 205.494 49.4765C205.24 49.349 205.113 48.7114 205.494 48.4564C204.986 47.9463 204.732 47.6913 203.842 47.8188C204.224 47.1812 204.986 46.9262 207.401 47.4362C207.655 46.5436 207.909 41.1879 207.782 40.0403C207.782 39.7852 207.655 39.5302 207.528 39.0201C206.893 37.4899 205.622 34.9396 205.367 33.2819C204.986 33.2819 204.351 33.4094 204.096 33.1544C203.588 32.6443 202.444 30.9866 202.19 29.3289C201.809 28.6913 201.173 26.1409 203.08 24.7383C204.478 23.7181 207.655 22.5705 207.528 21.4228C207.528 20.7852 206.384 20.1477 206.003 19.8926C205.622 19.6376 205.749 19.5101 206.13 19.1275C208.036 17.3423 210.197 19.1275 208.926 21.2953C208.036 22.953 203.207 24.3557 204.351 27.4161C205.367 27.5436 205.876 27.9262 206.257 28.4362C207.147 28.0537 210.832 26.5235 211.214 21.8054C212.103 21.1678 213.12 20.6577 214.01 19.8926C214.137 21.0403 214.01 28.6913 207.147 30.349C207.274 30.9866 208.799 31.1141 209.689 29.9664C210.578 30.2215 211.595 29.4564 211.595 28.8188C212.358 28.8188 213.12 27.9262 212.993 27.1611C213.883 26.906 214.391 25.6309 214.01 24.7383C214.772 24.3557 215.027 23.4631 214.772 22.443C215.408 22.0604 215.662 20.9128 215.027 20.1477C215.408 19.5101 215.281 19 215.027 18.6175C216.297 17.4698 217.823 16.0671 218.839 14.2819C218.966 15.5571 218.331 16.5772 217.568 17.5973C218.839 16.7047 219.221 16.5772 219.983 15.9396C219.729 17.3423 218.204 18.6175 217.568 19.255C218.331 19 219.475 18.3624 220.365 17.9799C219.602 19.5101 218.331 20.4027 217.568 20.9128C218.585 20.6577 219.348 20.5302 220.11 20.2752C219.475 21.0403 218.331 21.8054 216.933 22.1879C217.95 22.1879 218.839 22.0604 219.729 21.8054C219.094 22.5705 218.077 23.2081 216.806 23.3356C217.823 23.2081 218.077 23.3356 219.221 23.2081Z" fill="#E6E6E6"/>
<path d="M211.595 22.5705C211.468 24.1007 210.324 26.2685 209.053 27.4161H209.943C210.832 26.5235 212.357 24.9933 212.612 21.9329C212.485 22.0604 211.976 22.443 211.595 22.5705Z" fill="#E6E6E6"/>
<path d="M206.638 19.5101C206.765 19.3826 206.765 19 207.147 18.8725C207.528 18.745 207.528 19 207.655 19.1275C207.909 19.1275 207.782 19.1275 207.655 19.3826C207.528 19.5101 207.528 19.8926 207.147 19.8926C206.765 19.8926 206.765 19.7651 206.511 19.7651C206.384 19.6376 206.511 19.5101 206.638 19.5101Z" fill="#E6E6E6"/>
<path d="M211.087 36.5973C211.468 36.5973 211.849 36.5973 212.103 36.4698C212.357 36.8523 212.612 37.1074 212.612 37.2349C212.103 37.3624 211.595 37.3624 211.341 37.3624C211.341 37.4899 211.341 37.1074 211.087 36.5973Z" fill="#E6E6E6"/>
<path d="M210.705 50.3691C210.324 50.4966 209.816 50.6242 209.053 50.6242H208.163C204.986 50.4966 201.682 49.604 199.648 47.5638C202.444 44.7584 199.14 42.4631 197.36 44.7584C196.852 45.5235 196.344 46.0336 195.962 46.7987C195.708 47.4362 195.835 47.9463 196.598 48.8389C196.979 49.349 197.869 50.1141 198.758 50.6242H182.745C183.507 50.1141 184.524 49.349 184.778 48.8389C185.414 47.9463 185.668 47.3087 185.414 46.7987C185.032 46.0336 184.524 45.5235 184.016 44.7584C182.236 42.3356 178.932 44.6309 181.728 47.5638C179.694 49.604 176.39 50.6242 173.213 50.6242H172.323C171.56 50.6242 171.052 50.4966 170.671 50.3691C170.035 50.2416 169.908 50.4966 170.162 51.6443C170.416 52.4094 170.544 53.6846 170.671 54.5772H210.705C210.832 53.6846 210.96 52.4094 211.214 51.6443C211.595 50.4966 211.468 50.2416 210.705 50.3691ZM198.25 44.8859C198.758 44.2483 199.521 44.3758 199.902 45.0134C200.284 45.651 199.775 46.4161 199.14 47.0537C198.123 45.906 197.996 45.1409 198.25 44.8859ZM196.979 48.0738C196.598 47.5638 196.598 47.3087 196.725 46.9262C196.852 46.5436 197.233 46.1611 197.615 45.651C198.123 47.8188 201.427 49.8591 203.842 50.6242H200.029C198.886 49.9866 197.615 49.094 196.979 48.0738ZM181.474 44.8859C181.728 44.2483 182.49 44.1208 183.126 44.7584C183.38 45.0134 183.253 45.906 182.363 46.7987C181.728 46.2886 181.219 45.5235 181.474 44.8859ZM183.888 45.651C184.27 46.1611 184.524 46.5436 184.778 46.9262C184.905 47.3087 184.778 47.6913 184.524 48.0738C183.761 49.094 182.49 49.9866 181.474 50.4966H177.661C180.076 49.8591 183.253 47.8188 183.888 45.651ZM209.943 53.9396H171.433C171.306 52.6644 171.052 51.8993 170.798 51.2617H210.578C210.324 51.8993 210.197 52.6644 209.943 53.9396Z" fill="#E6E6E6"/>
<path d="M176.644 53.047L176.771 53.302C176.771 53.302 176.771 53.302 176.898 53.302C177.025 53.302 177.279 53.302 177.279 53.302C177.407 53.302 177.407 53.302 177.407 53.302C177.407 53.302 177.407 53.302 177.279 53.302C177.279 53.302 177.152 53.302 177.025 53.047C176.898 52.6644 176.517 51.7718 176.517 51.6443V51.5168C176.517 51.5168 176.517 51.5168 176.39 51.6443L175.754 53.047C175.754 53.1745 175.627 53.302 175.5 53.302C175.5 53.302 175.5 53.302 175.373 53.302C175.5 53.302 175.627 53.302 175.627 53.302C175.754 53.302 175.754 53.302 175.881 53.302C175.754 53.302 175.754 53.302 175.754 53.1745V53.047V52.9195H176.644V53.047ZM176.009 52.9195L176.263 52.1544L176.517 52.9195H176.009Z" fill="#E6E6E6"/>
<path d="M177.788 52.6644C177.788 53.047 177.915 53.1745 178.042 53.302C178.169 53.4295 178.423 53.4295 178.55 53.4295C178.677 53.4295 178.805 53.4295 179.059 53.302C179.313 53.1745 179.313 52.9195 179.313 52.6644V52.4094C179.313 52.0268 179.313 52.0268 179.313 51.8993C179.313 51.7718 179.313 51.7718 179.44 51.7718C179.44 51.7718 179.44 51.7718 179.567 51.7718C179.44 51.7718 179.313 51.7718 179.313 51.7718C179.313 51.7718 179.186 51.7718 179.059 51.7718H179.186C179.313 51.7718 179.313 51.7718 179.313 51.8993C179.313 52.0268 179.313 52.0268 179.313 52.4094V52.6644C179.313 52.9195 179.313 53.047 179.186 53.1745C179.059 53.302 178.932 53.302 178.932 53.302C178.805 53.302 178.805 53.302 178.677 53.1745C178.55 53.047 178.55 52.9195 178.55 52.6644V52.2819C178.55 51.8993 178.55 51.8993 178.55 51.7718C178.55 51.6443 178.55 51.6443 178.677 51.6443C178.677 51.6443 178.677 51.6443 178.805 51.6443C178.677 51.6443 178.55 51.6443 178.55 51.6443C178.423 51.6443 178.296 51.6443 178.169 51.6443H178.296C178.423 51.6443 178.423 51.6443 178.423 51.7718C178.423 51.8993 178.423 51.8993 178.423 52.2819V52.6644H177.788Z" fill="#E6E6E6"/>
<path d="M180.203 52.7919C180.203 53.047 180.203 53.1745 180.203 53.302C180.203 53.4295 180.203 53.4295 180.076 53.4295C180.076 53.4295 180.076 53.4295 179.949 53.4295C180.076 53.4295 180.203 53.4295 180.203 53.4295C180.33 53.4295 180.457 53.4295 180.711 53.4295C181.092 53.4295 181.347 53.302 181.474 53.1745C181.601 53.047 181.728 52.7919 181.728 52.5369C181.728 52.2819 181.601 52.0268 181.474 51.8993C181.219 51.6443 180.838 51.6443 180.584 51.6443C180.457 51.6443 180.33 51.6443 180.203 51.6443C180.076 51.6443 179.949 51.6443 179.821 51.6443H179.949C180.076 51.6443 180.076 51.6443 180.076 51.7718C180.076 51.8993 180.076 51.8993 180.076 52.2819V52.7919H180.203ZM180.457 52.2819C180.457 52.1544 180.457 51.8993 180.457 51.7718H180.584C180.711 51.7718 180.965 51.7718 181.219 52.0268C181.347 52.1544 181.474 52.2819 181.474 52.5369C181.474 52.7919 181.474 52.9195 181.219 53.047C181.092 53.1745 180.965 53.1745 180.711 53.1745C180.584 53.1745 180.457 53.1745 180.457 53.047V52.9195C180.457 52.9195 180.457 52.6644 180.457 52.4094V52.2819Z" fill="#E6E6E6"/>
<path d="M183.253 53.047C183.38 53.047 183.38 53.047 183.253 53.047L183.38 53.302C183.38 53.302 183.38 53.302 183.507 53.302C183.634 53.302 183.888 53.302 183.888 53.302C184.016 53.302 184.016 53.302 184.016 53.302C184.016 53.302 184.016 53.302 183.888 53.302C183.888 53.302 183.761 53.302 183.634 53.047C183.507 52.6644 183.126 51.7718 183.126 51.6443V51.5168C183.126 51.5168 183.126 51.5168 183.126 51.6443L182.49 53.047C182.49 53.1745 182.363 53.302 182.236 53.302C182.236 53.302 182.236 53.302 182.109 53.302C182.236 53.302 182.363 53.302 182.363 53.302C182.49 53.302 182.49 53.302 182.618 53.302C182.49 53.302 182.49 53.302 182.49 53.1745V53.047V52.9195H183.253V53.047ZM182.745 52.9195C182.618 52.9195 182.618 52.9195 182.745 52.9195L182.999 52.1544L183.253 52.9195H182.745Z" fill="#E6E6E6"/>
<path d="M185.541 51.8993C185.668 51.7718 185.668 51.7718 185.668 51.7718C185.668 51.7718 185.668 51.7718 185.795 51.7718C185.668 51.7718 185.668 51.7718 185.541 51.7718C185.541 51.7718 185.414 51.7718 185.286 51.7718C185.286 51.7718 185.286 51.7718 185.414 51.7718C185.414 51.7718 185.414 51.7718 185.414 51.8993C185.414 52.0269 185.159 52.2819 185.159 52.4094C185.032 52.2819 184.905 52.0269 184.905 51.8993C184.905 51.8993 184.905 51.8993 184.905 51.7718C184.905 51.6443 184.905 51.7718 184.905 51.7718C184.778 51.7718 184.651 51.7718 184.651 51.7718C184.524 51.7718 184.397 51.7718 184.27 51.7718C184.27 51.7718 184.27 51.7718 184.397 51.7718C184.524 51.7718 184.524 51.8993 184.524 51.8993L184.905 52.5369L184.524 53.1745C184.397 53.302 184.397 53.302 184.397 53.302H184.27H184.397H184.651C184.651 53.302 184.651 53.302 184.651 53.1745L185.032 52.6644C185.159 52.792 185.286 53.047 185.414 53.302C185.414 53.302 185.413 53.302 185.541 53.302C185.668 53.302 185.922 53.302 185.922 53.302H186.049C186.049 53.302 186.049 53.302 185.922 53.302C185.922 53.302 185.795 53.302 185.795 53.1745C185.795 53.047 185.414 52.5369 185.286 52.4094L185.541 51.8993Z" fill="#E6E6E6"/>
<path d="M189.226 53.047C189.226 53.047 189.353 53.047 189.226 53.047L189.353 53.302C189.353 53.302 189.353 53.302 189.481 53.302C189.608 53.302 189.862 53.302 189.862 53.302C189.989 53.302 189.989 53.302 189.989 53.302C189.989 53.302 189.989 53.302 189.862 53.302C189.862 53.302 189.735 53.302 189.608 53.047C189.481 52.6644 189.099 51.7718 189.099 51.6443V51.5168C189.099 51.5168 189.099 51.5168 188.972 51.6443L188.337 53.047C188.337 53.1745 188.21 53.302 188.083 53.302C188.083 53.302 188.083 53.302 187.955 53.302C188.083 53.302 188.21 53.302 188.21 53.302C188.337 53.302 188.337 53.302 188.464 53.302C188.337 53.302 188.337 53.302 188.337 53.1745V53.047V52.9195H189.226V53.047ZM188.591 52.9195L188.845 52.1544L189.099 52.9195H188.591Z" fill="#E6E6E6"/>
<path d="M190.624 52.792C190.624 53.047 190.624 53.1745 190.624 53.302C190.624 53.4295 190.624 53.4295 190.497 53.4295C190.497 53.4295 190.497 53.4295 190.37 53.4295C190.497 53.4295 190.624 53.4295 190.624 53.4295C190.624 53.4295 190.879 53.4295 191.006 53.4295H190.879C190.751 53.4295 190.751 53.4295 190.751 53.302C190.751 53.1745 190.751 53.047 190.751 52.792V51.8993H191.006C191.26 51.8993 191.26 52.0269 191.26 52.0269V51.7718C191.26 51.7718 191.133 51.7718 191.006 51.7718H190.37C190.243 51.7718 190.243 51.7718 190.116 51.7718H189.989V52.0269C189.989 52.0269 189.989 52.0269 189.989 51.8993C189.989 51.8993 190.116 51.8993 190.243 51.7718H190.624V52.792Z" fill="#E6E6E6"/>
<path d="M194.691 52.5369C194.691 52.5369 194.946 52.5369 195.073 52.5369C195.2 52.5369 195.2 52.5369 195.2 52.6644C195.2 52.6644 195.2 52.6644 195.2 52.792V52.6644C195.2 52.5369 195.2 52.5369 195.2 52.5369C195.2 52.5369 195.2 52.5369 195.073 52.5369C195.073 52.5369 195.073 52.5369 194.946 52.5369H194.691V52.0269H195.073C195.2 52.0269 195.2 52.0269 195.2 52.1544V52.2819V52.1544V52.0269C195.2 52.0269 195.2 52.0269 195.073 52.0269C195.073 52.0269 194.564 52.0269 194.437 52.0269C194.31 52.0269 194.183 52.0269 194.056 52.0269H194.183C194.31 52.0269 194.31 52.0269 194.31 52.1544C194.31 52.2819 194.31 52.2819 194.31 52.6644V53.047C194.31 53.302 194.31 53.4295 194.31 53.5571V53.6846C194.31 53.6846 194.31 53.6846 194.183 53.6846C194.31 53.6846 194.437 53.6846 194.437 53.6846C194.437 53.6846 194.691 53.6846 194.818 53.6846H194.691C194.564 53.6846 194.564 53.6846 194.564 53.5571C194.564 53.4295 194.564 53.302 194.564 53.047V52.5369H194.691Z" fill="#E6E6E6"/>
<path d="M196.089 52.792C196.089 53.047 196.089 53.1745 196.089 53.302C196.089 53.4295 196.089 53.4295 195.962 53.4295C195.962 53.4295 195.962 53.4295 195.835 53.4295C195.962 53.4295 196.089 53.4295 196.089 53.4295C196.089 53.4295 196.344 53.4295 196.471 53.4295H196.344C196.216 53.4295 196.216 53.4295 196.216 53.302C196.216 53.1745 196.216 53.047 196.216 52.792V52.4094C196.216 52.0269 196.216 52.0269 196.216 51.8993C196.216 51.7718 196.216 51.7718 196.344 51.7718C196.344 51.7718 196.344 51.7718 196.471 51.7718C196.344 51.7718 196.216 51.7718 196.216 51.7718C196.089 51.7718 195.962 51.7718 195.962 51.7718C195.962 51.7718 195.962 51.7718 196.089 51.7718C196.089 51.7718 196.216 51.7718 196.216 51.8993C196.216 52.0269 196.216 52.0269 196.216 52.4094V52.792H196.089Z" fill="#E6E6E6"/>
<path d="M197.487 52.7919C197.487 53.047 197.487 53.1745 197.487 53.302C197.487 53.4295 197.487 53.4295 197.36 53.4295C197.36 53.4295 197.36 53.4295 197.233 53.4295C197.36 53.4295 197.487 53.4295 197.487 53.4295C197.615 53.4295 197.869 53.4295 197.996 53.4295C198.377 53.4295 198.631 53.302 198.758 53.1745C198.886 53.047 199.013 52.7919 199.013 52.5369C199.013 52.2819 198.886 52.0268 198.758 51.8993C198.504 51.6443 198.123 51.6443 197.869 51.6443C197.742 51.6443 197.615 51.6443 197.487 51.6443C197.487 51.6443 197.233 51.6443 197.106 51.6443H197.233C197.36 51.6443 197.36 51.6443 197.36 51.7718C197.36 51.8993 197.36 51.8993 197.36 52.2819V52.7919H197.487ZM197.742 52.2819V51.7718H197.869C197.996 51.7718 198.25 51.7718 198.504 52.0268C198.631 52.1544 198.758 52.2819 198.758 52.5369C198.758 52.7919 198.758 52.9195 198.504 53.047C198.377 53.1745 198.25 53.1745 197.996 53.1745C197.869 53.1745 197.742 53.1745 197.742 53.047V52.9195C197.742 52.9195 197.742 52.6644 197.742 52.4094V52.2819Z" fill="#E6E6E6"/>
<path d="M199.902 52.7919C199.902 53.047 199.902 53.1745 199.902 53.302C199.902 53.4295 199.902 53.4295 199.775 53.4295C199.775 53.4295 199.775 53.4295 199.648 53.4295C199.775 53.4295 199.902 53.4295 199.902 53.4295C200.029 53.4295 200.156 53.4295 200.538 53.4295C200.665 53.4295 200.665 53.4295 200.665 53.4295V53.1745C200.665 53.302 200.665 53.302 200.538 53.302C200.538 53.302 200.411 53.302 200.284 53.302C200.029 53.302 200.029 53.302 200.029 53.047C200.029 52.9195 200.029 52.7919 200.029 52.6644V52.5369C200.029 52.5369 200.284 52.5369 200.411 52.5369C200.538 52.5369 200.538 52.5369 200.538 52.6644C200.538 52.6644 200.538 52.6644 200.538 52.7919V52.6644C200.538 52.5369 200.538 52.5369 200.538 52.5369C200.538 52.5369 200.538 52.5369 200.411 52.5369C200.411 52.5369 200.156 52.5369 200.029 52.5369V51.8993C200.029 51.8993 200.284 51.8993 200.411 51.8993C200.538 51.8993 200.538 51.8993 200.538 52.0268V52.1544V52.0268C200.538 51.8993 200.538 51.8993 200.538 51.8993C200.538 51.8993 200.538 51.8993 200.411 51.8993H199.902C199.902 51.8993 199.648 51.8993 199.521 51.8993H199.648C199.775 51.8993 199.775 51.8993 199.775 52.0268C199.775 52.1544 199.775 52.1544 199.775 52.5369V52.7919H199.902Z" fill="#E6E6E6"/>
<path d="M201.936 52.4094C201.936 52.0269 201.936 52.0269 201.936 51.8993C201.936 51.7718 201.936 51.7718 202.063 51.7718C202.063 51.7718 202.063 51.7718 202.19 51.7718C202.317 51.7718 202.19 51.7718 202.19 51.7718C202.063 51.7718 201.936 51.7718 201.936 51.7718H201.682C201.682 51.7718 201.682 51.7718 201.809 51.7718C201.936 51.7718 201.936 51.7718 201.936 51.8993C201.936 52.0269 201.936 52.0269 201.936 52.4094V52.792C201.936 53.047 201.936 53.1745 201.936 53.302V53.4295C201.936 53.4295 201.936 53.4295 201.809 53.4295C201.936 53.4295 202.063 53.4295 202.063 53.4295C202.19 53.4295 202.444 53.4295 202.698 53.4295C202.825 53.4295 202.826 53.4295 202.826 53.4295C202.826 53.302 202.826 53.1745 202.826 53.1745V53.302C202.826 53.302 202.698 53.4295 202.571 53.4295C202.444 53.4295 202.317 53.4295 202.317 53.4295C202.317 53.4295 202.317 53.1745 202.317 52.9195V52.4094H201.936Z" fill="#E6E6E6"/>
<path d="M203.334 52.792C203.334 53.047 203.334 53.1745 203.334 53.302C203.334 53.4295 203.334 53.4295 203.207 53.4295C203.207 53.4295 203.207 53.4295 203.08 53.4295C203.207 53.4295 203.334 53.4295 203.334 53.4295C203.461 53.4295 203.588 53.4295 203.715 53.4295H203.588C203.461 53.4295 203.461 53.4295 203.461 53.302C203.461 53.1745 203.461 53.047 203.461 52.792V52.4094C203.461 52.0269 203.461 52.0269 203.461 51.8993C203.461 51.7718 203.461 51.7718 203.588 51.7718C203.588 51.7718 203.588 51.7718 203.715 51.7718C203.588 51.7718 203.461 51.7718 203.461 51.7718C203.334 51.7718 203.207 51.7718 203.207 51.7718C203.207 51.7718 203.207 51.7718 203.334 51.7718C203.334 51.7718 203.461 51.7718 203.461 51.8993C203.461 52.0269 203.461 52.0269 203.461 52.4094V52.792H203.334Z" fill="#E6E6E6"/>
<path d="M204.986 53.4295C205.113 53.4295 205.24 53.4295 205.367 53.302C205.494 53.1745 205.621 53.047 205.621 52.9195C205.621 52.6644 205.494 52.5369 205.24 52.2819C205.113 52.1544 204.986 52.0269 204.986 51.8993C204.986 51.7718 205.113 51.6443 205.24 51.6443C205.367 51.6443 205.494 51.7718 205.494 51.7718V51.8993C205.494 51.8993 205.494 51.8993 205.494 51.7718C205.494 51.6443 205.494 51.5168 205.494 51.5168C205.494 51.5168 205.367 51.5168 205.24 51.5168C204.859 51.5168 204.732 51.6443 204.732 51.8993C204.732 52.0269 204.859 52.2819 205.113 52.4094L205.24 52.5369C205.367 52.6644 205.494 52.7919 205.494 52.9195C205.367 53.1745 205.24 53.302 204.986 53.4295C204.859 53.302 204.732 53.302 204.732 53.047V52.9195C204.732 52.9195 204.732 53.047 204.732 53.1745C204.732 53.1745 204.732 53.1745 204.732 53.302C204.732 53.4295 204.859 53.4295 204.986 53.4295Z" fill="#E6E6E6"/>
<path d="M198.123 6.37584C198.123 5.99329 197.487 5.73826 197.36 5.73826C197.106 5.73826 196.725 6.24832 196.344 6.63087C196.089 4.97316 196.217 4.33557 196.344 3.57047C196.979 4.84564 197.996 5.10067 198.504 5.10067C196.852 3.8255 197.106 2.55034 196.598 2.55034C196.344 2.55034 196.089 2.55034 195.962 2.55034C195.327 2.55034 195.327 3.69799 195.2 4.20805C194.818 3.44295 194.437 2.93289 193.802 2.04027C193.166 0.510067 192.404 0.892618 191.641 0.127517C192.277 1.02013 191.768 1.5302 193.166 2.2953C193.548 2.67785 193.929 3.18792 194.183 3.57047C193.929 3.8255 193.802 4.08054 193.548 4.20805C193.42 4.46309 193.293 5.48322 192.785 6.24832C193.548 5.86577 193.929 5.48322 194.183 4.97316C196.725 6.88591 194.691 11.604 194.056 12.7517C193.548 12.3691 192.785 12.1141 192.15 12.1141L192.022 11.8591L191.641 9.81879H191.895C192.15 9.81879 192.277 9.56376 192.277 9.43624L194.056 9.94631L194.818 10.2013L194.31 9.56376L193.548 8.41611L194.31 7.26846L194.818 6.63087L194.056 6.88591L192.531 7.39597C192.404 7.01342 192.15 6.88591 191.768 6.88591L192.277 5.10067L192.531 4.33557L191.895 4.84564L190.751 5.61074L189.608 4.84564L188.972 4.33557L189.226 5.10067L189.735 6.88591C189.481 6.88591 189.099 7.14094 188.972 7.39597L187.447 6.88591L186.684 6.63087L187.193 7.26846L187.955 8.41611L187.193 9.56376L186.684 10.2013L187.447 9.94631L189.226 9.43624C189.226 9.56376 189.226 9.81879 189.608 9.81879H189.862L189.226 11.7315L189.099 11.8591C188.464 11.9866 187.701 12.2416 187.193 12.6242C185.541 9.30873 186.049 6.12081 187.447 4.97316C187.447 5.61074 188.082 6.63087 188.337 6.75839C188.21 5.99329 188.464 4.71812 188.082 4.46309C187.828 4.20805 187.447 4.08054 187.066 4.08054C187.32 3.57047 187.701 3.0604 188.464 2.16779C189.481 1.65772 189.735 0.510067 189.989 0C188.972 0.38255 188.083 0.892618 187.955 1.91275C187.574 2.42282 187.193 3.0604 186.684 3.69799C186.684 2.80537 186.303 2.55034 185.668 2.55034C183.888 2.93289 184.015 4.20805 182.49 5.10067C183.507 5.48322 185.159 3.18792 185.795 3.44295C185.922 4.84564 185.541 5.99329 185.541 6.75839C185.286 6.50336 185.159 6.24832 184.905 6.24832C184.651 6.24832 184.015 6.24832 183.634 6.75839C183.507 7.52349 183.507 8.79866 182.872 10.4564C183.888 9.56376 184.397 7.65101 184.524 7.14094C184.778 7.52349 185.032 8.28859 185.159 8.92618C185.286 10.2013 186.049 12.3691 186.812 13.3893C186.684 13.7718 186.557 14.1544 186.684 14.6644C186.176 15.047 186.049 15.557 186.303 15.9396C186.557 16.3221 187.066 16.5772 187.574 16.3221L187.828 16.1946C188.464 15.9396 189.608 15.4295 191.133 15.4295C192.531 15.4295 193.802 15.9396 194.437 16.1946L194.691 16.3221C195.327 16.5772 195.835 16.3221 195.962 15.9396C196.089 15.557 196.089 15.047 195.581 14.6644C195.708 14.1544 195.581 13.7718 195.327 13.3893C196.598 11.604 196.598 8.28859 197.615 7.26846C197.742 8.41611 198.377 9.43624 198.885 9.56376C198.123 8.67114 198.123 7.14094 198.123 6.37584ZM192.404 7.90604L193.293 7.65101L192.912 8.28859L192.785 8.41611L192.912 8.54362L193.42 9.18121L192.277 8.79866C192.277 8.54362 192.404 8.28859 192.404 7.90604ZM188.082 9.18121L188.464 8.54362L188.591 8.41611L188.464 8.28859L188.082 7.65101L188.972 7.90604C188.972 8.28859 189.099 8.54362 189.226 8.79866L188.082 9.18121ZM191.641 8.92618H190.879L191.006 7.65101C192.15 7.14094 192.022 8.16107 191.641 8.92618ZM191.514 11.094L190.879 10.7114L190.751 10.5839L190.624 10.7114L189.989 11.094L190.37 9.81879H191.133L191.514 11.094ZM190.497 6.12081L190.624 6.24832L190.751 6.12081L191.387 5.61074L191.006 6.75839C191.006 6.63087 190.751 6.50336 190.624 6.50336C190.497 6.50336 190.243 6.63087 190.243 6.75839L189.862 5.61074L190.497 6.12081ZM189.735 8.92618C189.353 8.16107 189.226 7.14094 190.37 7.65101L190.497 8.92618H189.735ZM190.751 11.2215L191.641 11.8591C191.26 11.8591 191.006 11.8591 190.751 11.8591C190.624 11.8591 190.243 11.8591 189.862 11.8591L190.751 11.2215ZM187.193 15.6846L187.066 15.8121C186.812 15.9396 186.684 15.8121 186.557 15.6846C186.43 15.557 186.557 15.302 186.812 15.1745C186.812 15.1745 186.939 15.1745 186.939 15.047L187.574 15.557C187.447 15.557 187.32 15.6846 187.193 15.6846ZM189.226 15.047L188.591 14.4094C189.099 14.2819 189.608 14.1544 190.243 14.1544L190.624 14.9195C190.116 14.9195 189.608 14.9195 189.226 15.047ZM192.785 15.1745L192.404 14.2819C192.912 14.4094 193.548 14.5369 193.929 14.7919L194.183 15.6846C193.802 15.4295 193.293 15.302 192.785 15.1745ZM190.751 13.3893C189.608 13.3893 188.21 13.6443 187.193 14.1544C187.193 13.8993 187.32 13.7718 187.447 13.5168C188.082 12.7517 189.608 12.4966 190.751 12.4966C191.895 12.4966 193.42 12.7517 194.056 13.5168C194.183 13.6443 194.31 13.8993 194.31 14.1544C193.293 13.7718 191.895 13.3893 190.751 13.3893Z" fill="#E6E6E6"/>
<path d="M182.236 32.5168C182.363 31.1141 182.236 30.9866 181.728 30.7315C181.347 30.4765 180.838 30.349 180.203 29.9664C179.821 29.7114 179.694 29.3289 179.186 28.6913C179.313 27.2886 180.838 25.5034 181.347 25.7584V24.9933C180.711 24.7383 179.44 25.3758 178.55 27.7987C178.423 27.6711 178.296 27.6711 178.169 27.5436C178.296 27.0336 178.042 26.5235 177.661 26.1409C178.042 25.8859 179.059 25.3758 179.694 24.9933C180.33 24.4832 180.457 24.3557 181.347 24.4832C181.347 24.4832 181.474 24.3557 181.601 24.1007C180.965 23.3356 180.203 23.5906 179.567 24.2282C179.059 24.6107 178.042 25.3758 177.279 25.6309C176.263 24.7383 174.738 24.1007 173.594 22.953C173.594 22.953 175.119 22.953 175.754 22.698C175.881 22.5705 176.39 21.8054 176.263 21.0403C176.009 20.9128 175.754 20.7852 175.373 20.6577C174.992 20.4027 174.611 20.1476 174.356 20.0201C173.721 19.5101 173.467 19.1275 172.323 18.8725C172.45 18.3624 172.45 18.4899 172.958 18.1074C173.594 17.7248 173.975 17.2148 174.229 16.7047C174.483 16.3221 174.229 15.557 173.721 16.5772C173.594 16.9597 173.085 17.4698 172.45 17.5973C172.45 17.2148 172.45 17.0872 172.45 16.9597C174.102 15.8121 173.975 14.7919 173.848 13.7718C173.721 13.2617 173.212 13.0067 173.212 13.5168C173.212 13.8993 173.594 15.047 172.45 15.6846C172.45 15.1745 172.323 14.9195 172.196 14.7919C173.212 13.5168 172.831 12.2416 172.323 11.604C172.069 11.2215 171.433 11.094 171.687 11.7315C171.942 12.2416 172.323 13.5168 171.56 14.0268C171.306 13.6443 171.052 13.6443 170.925 13.1342C171.052 11.7315 170.925 10.8389 170.671 10.3289C170.544 9.81879 170.035 9.56376 170.035 10.2013C170.035 10.9664 170.162 11.9866 170.035 12.1141C169.908 12.1141 168.891 11.2215 168.51 10.8389C168.129 10.5839 167.62 10.7114 168.129 11.2215C168.51 11.7315 169.908 12.7517 169.781 13.0067C169.654 13.2617 168.764 12.3691 168.256 12.2416C167.747 12.1141 167.62 12.3691 168.002 12.6242C168.637 13.1342 169.145 13.5168 170.289 13.8993C171.433 14.2819 171.942 15.8121 171.687 18.1074C171.687 18.2349 171.433 18.2349 171.306 18.1074C171.306 17.2148 171.052 16.1946 170.925 15.8121C170.671 15.1745 170.162 15.1745 170.289 16.0671C170.416 16.7047 170.544 17.3423 170.416 18.2349C169.527 18.1074 169.145 17.8523 168.764 17.5973C168.764 17.2148 168.891 16.4497 169.018 15.8121C169.018 15.1745 168.637 14.7919 168.51 15.557C168.256 16.3221 168.129 16.7047 168.002 17.2148C167.747 17.0872 167.493 16.9597 167.366 16.8322C167.239 16.7047 167.366 15.9396 167.239 15.302C167.112 14.6644 166.858 14.6644 166.731 15.302C166.604 15.557 166.604 15.9396 166.476 16.4497C166.095 16.1946 165.968 15.8121 165.841 15.557C165.841 14.7919 165.968 14.0268 166.095 13.5168C166.095 13.1342 165.968 12.4966 165.714 13.2617C165.46 13.8993 165.46 14.4094 165.333 14.7919C165.078 14.7919 164.824 13.3893 164.57 12.4966C164.443 12.1141 164.189 11.604 164.062 12.4966C163.935 13.5168 164.189 14.5369 164.443 14.9195C163.935 14.9195 163.553 14.0268 163.172 13.5168C162.918 13.0067 162.791 13.5168 162.791 13.7718C163.045 15.557 164.443 16.1946 165.078 16.3221C166.095 17.7248 168.002 18.3624 169.527 19C167.493 19 166.858 19.7651 165.968 19.255C165.968 20.0201 166.349 20.4027 166.731 20.5302C166.985 20.6577 167.239 20.6577 167.366 20.6577C167.493 21.5503 168.383 21.5503 169.145 21.5503C168.891 23.4631 169.145 25.8859 170.798 27.6711C170.798 28.5638 170.671 29.8389 170.671 30.604C169.4 31.8792 168.129 34.4295 167.747 35.8322C167.366 36.8523 166.858 37.745 166.095 38.1275C166.731 38.8926 167.747 38.5101 168.256 38.1275C168.256 38.7651 168.383 39.1476 168.51 39.5302C168.129 40.0403 167.875 40.5503 167.875 41.1879C167.493 41.3154 167.112 41.5705 166.858 41.8255C166.731 41.953 166.858 42.8456 166.985 43.2282C167.493 44.3758 167.112 47.0537 166.985 47.9463C167.239 47.9463 167.62 47.9463 167.747 47.6913C167.875 47.8188 168.256 48.0738 168.383 48.5839C168.383 48.8389 168.256 49.604 168.637 49.7315C169.018 49.8591 170.416 49.7315 170.671 49.4765C170.544 49.349 170.289 48.9664 170.162 48.4564C170.162 48.0738 170.162 47.5638 170.035 47.3087C169.908 47.0537 169.4 46.2886 169.145 46.0336C169.145 45.5235 169.018 43.3557 169.273 42.4631C169.654 42.208 172.323 40.2953 172.831 38.3825C173.34 38.5101 173.212 39.9127 173.212 41.5705C173.212 42.0805 173.721 42.2081 174.102 42.3356C174.865 42.4631 175.881 43.1007 176.898 44.7584C177.152 44.5034 177.407 44.2483 177.407 44.2483C177.534 44.5034 177.661 44.8859 177.788 45.2685C177.915 45.5235 178.805 45.651 179.567 45.396C179.821 45.2685 179.948 45.2685 180.076 45.0134C179.186 43.4832 178.678 42.4631 177.534 41.5705C177.025 41.1879 176.263 40.9329 175.754 40.5503C176.136 39.7852 177.279 36.3423 176.644 35.0671C176.39 34.6846 175.627 34.1745 174.611 34.4295C175.5 33.4094 177.152 31.3691 177.407 30.7315C177.661 30.9866 178.55 30.8591 179.313 31.1141C179.567 31.2416 180.33 32.2617 180.33 32.5168C180.457 33.1544 180.457 33.9195 179.948 35.5772C180.203 35.5772 180.203 35.4497 180.457 35.4497C180.457 35.9597 180.33 36.2148 179.948 36.9799C180.076 37.6174 180.33 38.5101 180.584 38.6376C180.965 37.4899 182.363 35.8322 182.363 34.9396C182.745 34.1745 182.109 33.0268 182.236 32.5168ZM168.51 20.6577C168.256 20.4027 168.256 20.1476 168.129 20.0201C168.891 19.5101 169.908 19.8926 170.544 19.3825C170.925 19.6376 171.433 19.3825 171.687 19.3825C172.45 19.255 173.467 20.1476 174.229 20.6577C174.611 20.9128 174.865 21.0403 174.992 21.0403C174.738 21.6779 174.865 21.8054 175.373 21.9329C175.373 22.0604 175.246 22.1879 174.611 22.1879C173.975 22.0604 173.212 22.1879 172.958 22.1879C171.052 23.2081 170.544 21.5503 170.544 20.6577C169.4 21.1678 168.764 20.9128 168.51 20.6577ZM176.009 35.9597C176.644 36.7248 175.754 40.1678 175.373 40.8054C175.119 41.3154 175.627 41.698 175.881 41.8255C177.28 42.208 178.55 43.4832 179.059 44.5034L178.55 44.7584C177.534 43.3557 177.279 43.8658 177.025 44.1208C176.771 43.6107 175.5 42.3356 174.738 42.208C173.975 42.0805 173.975 41.698 174.102 41.3154C174.229 40.5503 174.102 39.5302 174.102 38.8926C173.975 38.3825 173.594 37.8725 173.34 37.8725C173.467 37.4899 173.34 36.3423 174.356 35.8322C174.992 35.3221 175.881 35.7047 176.009 35.9597ZM181.601 36.7248C181.474 36.7248 181.347 36.7248 181.347 36.5973C181.601 35.8322 181.601 35.3221 181.601 35.1946C181.474 35.1946 181.219 35.1946 181.219 35.1946C181.474 33.9195 181.347 33.1544 181.219 32.6443C181.092 32.1342 180.33 31.3691 180.076 31.2416C179.694 30.9866 179.313 30.8591 178.678 30.7315C177.152 29.4564 176.644 30.2215 175.627 30.094C175.5 29.8389 175.246 29.5839 175.246 29.5839L174.738 29.9664C174.738 29.9664 175.246 30.604 175.246 30.9866C175.246 30.9866 176.263 30.8591 177.025 30.9866C176.771 32.0067 175.373 33.2819 174.102 34.8121C172.704 36.3423 172.704 36.7248 172.704 38C172.704 39.4027 170.671 41.698 169.145 42.7181C169.018 43.1007 168.891 46.2886 169.018 46.7987C169.145 46.9262 169.527 47.4362 169.781 47.9463C169.908 48.0738 169.908 48.5839 169.908 48.9664C169.654 48.9664 169.527 48.9664 169.4 48.8389C169.273 48.3289 168.891 47.8188 168.256 47.3087C168.383 45.5235 168.637 44.5034 168.002 42.7181C168.002 42.5906 168.764 42.0805 168.764 42.0805C168.764 42.0805 169.018 40.8054 169.781 40.1678C169.273 38.7651 169.145 36.8523 169.145 36.8523C169.145 36.8523 168.764 37.2349 168.256 37.6174C169.654 33.0268 170.035 34.302 171.687 30.9866C172.831 25.6309 169.781 24.6107 170.289 22.8255C171.306 23.8456 171.942 23.4631 172.831 23.2081C173.594 23.8456 174.738 25.3758 175.881 25.7584C177.661 26.396 177.534 27.9262 177.279 28.6913C178.042 28.6913 178.55 28.9463 178.805 29.3289C180.076 31.2416 180.838 30.604 181.474 31.4966C181.728 31.8792 181.474 32.8993 181.855 33.9195C182.109 34.557 182.236 35.3221 182.236 35.4497C182.109 35.7047 181.728 36.2148 181.601 36.7248Z" fill="#E6E6E6"/>
<path d="M172.45 21.0403C172.831 21.0403 172.958 20.7852 173.34 20.9127C173.34 20.7852 173.085 20.7852 173.085 20.6577V20.5302C173.085 20.1476 172.958 19.8926 172.45 19.8926C172.323 20.1476 171.814 20.4027 171.56 20.5302C171.687 20.5302 171.687 20.5302 171.814 20.5302C172.069 20.7852 171.942 21.0403 172.45 21.0403Z" fill="#E6E6E6"/>
<path d="M200.029 24.1007H190.751H181.474H181.092V24.4832V31.1141C181.219 31.2416 181.346 31.2416 181.474 31.3691C181.728 31.7517 181.474 32.7718 181.855 33.792V33.9195H190.497V47.6913C189.481 47.3087 187.447 46.2886 185.541 44.5034C183.253 42.2081 181.982 39.5302 181.855 36.3423C181.728 36.4698 181.728 36.5973 181.728 36.7248C181.601 36.7248 181.474 36.7248 181.474 36.5973C181.728 35.8322 181.728 35.4497 181.728 35.1946C181.601 35.3222 181.346 35.1946 181.346 35.1946C181.601 33.9195 181.474 33.1544 181.346 32.6443C181.346 32.6443 181.346 32.5168 181.219 32.5168V35.7047C181.219 39.2752 182.49 42.4631 185.159 45.0134C187.447 47.3087 189.989 48.3289 190.751 48.5839H190.879H191.006C191.768 48.3289 194.31 47.3087 196.598 45.0134C199.267 42.4631 200.538 39.4027 200.538 35.7047V35.0671C200.284 35.4497 200.029 35.7047 199.775 35.7047C199.775 39.1477 198.504 42.0805 196.089 44.5034C194.183 46.2886 192.149 47.3087 191.133 47.6913V33.9195H199.775V35.1946C200.665 34.047 200.283 31.1141 199.775 30.7316V33.2819H181.855V24.7383H190.879H199.902V30.7316C200.156 30.604 200.411 30.7315 200.538 31.1141V24.4832V24.1007H200.029Z" fill="#E6E6E6"/>
<defs>
<linearGradient id="paint0_linear_140_3028" x1="80.3178" y1="23.9601" x2="91.3894" y2="37.4778" gradientUnits="userSpaceOnUse">
<stop stop-color="#D51116"/>
<stop offset="1" stop-color="#F3BA00"/>
</linearGradient>
</defs>
</svg>
