<svg width="170" height="33" viewBox="0 0 170 33" fill="none" xmlns="http://www.w3.org/2000/svg">
<path d="M71.7998 13.0836H74.9337V22.0752H77.3961V13.0697H80.53V10.8288H71.7998V13.0836Z" fill="#262629"/>
<path d="M23.0424 15.5891H19.8805V9.00551C19.8805 8.94984 19.8385 8.90808 19.7826 8.90808C19.7546 8.90808 19.7266 8.922 19.6986 8.94984L14.8299 17.3568C14.7879 17.4264 14.8439 17.496 14.9138 17.496H18.0617V24.0796C18.0617 24.177 18.1876 24.2049 18.2436 24.1213L23.1263 15.7144C23.1683 15.6726 23.1124 15.5891 23.0424 15.5891Z" fill="url(#paint0_linear_2412_1115)"/>
<path d="M30.9336 4.05035H11.7244L10.2974 6.51398H29.5066L34.9769 15.937C35.2008 16.3128 35.2008 16.7861 34.9769 17.1619L27.394 30.2316C27.2541 30.4683 26.9882 30.6214 26.7084 30.6214H7.96094L8.99625 32.403C9.0662 32.5143 9.15014 32.6257 9.24808 32.7231H28.7371C28.849 32.6257 28.9329 32.5143 29.0029 32.389L37.775 17.2593C38.0269 16.8278 38.0269 16.285 37.775 15.8396L30.9336 4.05035Z" fill="url(#paint1_linear_2412_1115)"/>
<path d="M7.0373 29.0486L26.1765 29.0346H26.2325L27.6595 26.571H8.46435L3.00799 17.1619C2.78414 16.7861 2.78414 16.3128 3.00799 15.937L10.6049 2.85336C10.7448 2.61674 10.9967 2.47755 11.2625 2.47755H29.8561H30.024L28.9327 0.58459C28.7228 0.222701 28.3451 0 27.9254 0H10.1992C9.69553 0 9.21985 0.278376 8.96802 0.709859L0.195869 15.8396C0.0699533 16.0484 0.0139907 16.2989 0 16.5355V16.5634C0 16.8 0.0699533 17.0505 0.195869 17.2593L7.0373 29.0486Z" fill="#262629"/>
<path d="M54.4933 10.801H52.0589V11.0933C52.0589 13.4316 52.0589 15.77 52.0589 18.1083C52.0589 18.7486 51.891 19.3193 51.3314 19.709C50.3101 20.4189 48.925 19.8621 48.6732 18.6373C48.6172 18.3728 48.6172 18.0944 48.5892 17.816H46.1968C46.1129 18.9295 46.3507 19.9317 47.0363 20.7947C47.9876 21.9778 49.2748 22.3814 50.7438 22.284C53.0522 22.1309 54.4513 20.4189 54.4793 18.345C54.5073 15.9092 54.4793 13.4595 54.4793 11.0237V10.801H54.4933Z" fill="#262629"/>
<path d="M139.193 17.6908C141.221 16.5634 141.711 13.8353 140.172 12.0955C139.347 11.1629 138.269 10.801 137.038 10.7871C135.597 10.7871 134.156 10.7871 132.715 10.7871C132.659 10.7871 132.589 10.801 132.533 10.801V22.0474H134.982V18.2198C135.443 18.2198 135.891 18.2337 136.325 18.2198C136.493 18.2198 136.591 18.2754 136.674 18.4285C137.332 19.5977 138.004 20.753 138.661 21.9082C138.731 22.0335 138.815 22.0892 138.955 22.0753C139.557 22.0613 140.158 22.0753 140.774 22.0753H141.515C140.662 20.6277 139.836 19.2358 139.011 17.8161C139.081 17.7465 139.137 17.7187 139.193 17.6908ZM137.262 15.9232C136.507 15.9788 135.751 15.9371 134.982 15.9371V13.0837C134.996 13.0698 135.01 13.0559 135.024 13.0559C135.779 13.0559 136.535 13.028 137.29 13.0698C138.06 13.1255 138.577 13.7379 138.577 14.4895C138.591 15.269 138.087 15.8675 137.262 15.9232Z" fill="#262629"/>
<path d="M108.441 15.1158H104.16V10.801H101.726V22.0474H104.174V17.4263H108.455V22.0474H110.875V10.801H108.441V15.1158Z" fill="#262629"/>
<path d="M94.2125 17.83C93.8208 18.9435 93.0793 19.6951 91.8901 19.9178C90.6449 20.1544 89.5397 19.8343 88.7002 18.86C87.8888 17.9274 87.6649 16.8139 87.9168 15.6169C88.1546 14.4895 88.7702 13.6126 89.8615 13.1394C91.6103 12.3877 93.4431 13.1254 94.1846 14.8653C94.2405 14.9906 94.3105 15.0323 94.4504 15.0323C94.954 15.0184 95.4717 15.0323 95.9754 15.0323H96.7029C96.6889 14.9349 96.6889 14.8653 96.6749 14.7957C96.3111 13.3899 95.5836 12.2486 94.3525 11.4552C92.2539 10.0911 89.4277 10.2442 87.483 11.8588C85.8182 13.2507 85.1886 15.0741 85.4264 17.1897C85.7902 20.5163 88.8261 22.8825 92.4357 22.1587C94.7442 21.6994 96.1013 20.1823 96.6889 17.9553C96.7169 17.8578 96.7309 17.7604 96.7449 17.6491H94.2965C94.2545 17.7186 94.2405 17.7743 94.2125 17.83Z" fill="#262629"/>
<path d="M122.88 10.9541C122.824 10.8149 122.74 10.7732 122.6 10.7732C121.984 10.7871 121.355 10.7871 120.739 10.7732C120.543 10.7732 120.473 10.8289 120.404 11.0098C119.256 13.9606 118.081 16.8975 116.934 19.8483C116.654 20.572 116.36 21.2958 116.066 22.0613C116.906 22.0613 117.717 22.0613 118.515 22.0474C118.571 22.0474 118.627 21.9917 118.669 21.9361L120.781 16.2154C121.075 15.4082 121.383 14.5869 121.691 13.7379C121.998 14.573 122.306 15.3942 122.614 16.2154L122.67 16.3686C122.838 16.8418 123.02 17.315 123.188 17.7744L124.013 20.0014C124.027 20.0292 124.041 20.057 124.055 20.0849C124.265 20.6834 124.489 21.268 124.713 21.8665C124.741 21.9361 124.825 22.0335 124.895 22.0335C125.734 22.0474 126.559 22.0474 127.413 22.0474C127.385 21.9639 127.371 21.8943 127.343 21.8247C125.832 18.2198 124.349 14.5869 122.88 10.9541Z" fill="#262629"/>
<path d="M165.509 19.7786V17.4681H169.398V15.2689H165.509V13.028H170V10.801H163.061V22.0474H170V19.7786H165.509Z" fill="#262629"/>
<path d="M152.288 10.5365C149 10.5365 146.328 13.1672 146.328 16.4242C146.328 19.6672 149 22.3118 152.288 22.3118C155.576 22.3118 158.248 19.6812 158.248 16.4242C158.248 16.0205 158.206 15.6308 158.122 15.255H155.73H152.456V17.4124H155.786C155.352 18.9156 153.939 20.0152 152.274 20.0152C150.26 20.0152 148.623 18.4006 148.623 16.4242C148.623 14.4477 150.26 12.8331 152.274 12.8331C153.295 12.8331 154.205 13.2367 154.876 13.9049H157.661C156.723 11.9145 154.667 10.5365 152.288 10.5365Z" fill="#262629"/>
<path d="M62.1323 19.8064V17.482H66.0217V15.2828H62.1323V13.0558H66.6233V10.8288H59.6699V22.0752H66.6233V19.8064H62.1323Z" fill="#262629"/>
<defs>
<linearGradient id="paint0_linear_2412_1115" x1="-0.00375075" y1="16.549" x2="37.9633" y2="16.549" gradientUnits="userSpaceOnUse">
<stop stop-color="#FFB510"/>
<stop offset="1" stop-color="#F48120"/>
</linearGradient>
<linearGradient id="paint1_linear_2412_1115" x1="-0.00328943" y1="18.3884" x2="37.9638" y2="18.3884" gradientUnits="userSpaceOnUse">
<stop stop-color="#FFB510"/>
<stop offset="1" stop-color="#F48120"/>
</linearGradient>
</defs>
</svg>
