<svg width="23" height="19" viewBox="0 0 23 19" fill="none" xmlns="http://www.w3.org/2000/svg">
<path d="M23 2.23529C22.1509 2.61631 21.2519 2.87032 20.3029 2.99733C21.2769 2.4131 22.0261 1.47326 22.3757 0.355615C21.4767 0.914438 20.4528 1.29545 19.3789 1.52406C18.5049 0.584225 17.2812 0 15.9327 0C13.3355 0 11.2128 2.15909 11.2128 4.8008C11.2128 5.18182 11.2628 5.53743 11.3377 5.89305C7.41694 5.68984 3.94571 3.78476 1.62324 0.889037C1.22367 1.60027 0.973941 2.4131 0.973941 3.30214C0.973941 4.95321 1.79805 6.42647 3.07166 7.29011C2.2975 7.26471 1.57329 7.0615 0.948969 6.68048C0.948969 6.70588 0.948969 6.73128 0.948969 6.73128C0.948969 9.04278 2.5722 10.9987 4.71987 11.4305C4.3203 11.5321 3.92074 11.6083 3.47123 11.6083C3.17155 11.6083 2.87188 11.5829 2.5722 11.5321C3.17155 13.4372 4.91965 14.8342 6.96743 14.8596C5.34419 16.1551 3.32139 16.9171 1.12378 16.9171C0.749186 16.9171 0.374593 16.8917 0 16.8409C2.09772 18.2126 4.57003 19 7.21716 19C15.8827 19 20.6276 11.6845 20.6276 5.35963C20.6276 5.15642 20.6276 4.95321 20.6026 4.75C21.5765 4.06417 22.3757 3.20053 23 2.23529Z" fill="#262629"/>
</svg>
