<svg width="26" height="22" viewBox="0 0 26 22" fill="none" xmlns="http://www.w3.org/2000/svg">
<path d="M23.3523 5.47816C23.374 5.72474 23.374 5.94892 23.374 6.1955C23.374 13.5483 18.0134 21.9996 8.18197 21.9996C5.27379 22.022 2.43072 21.1477 0 19.5113C0.412354 19.5561 0.846411 19.6009 1.28047 19.6009C3.68948 19.6009 6.01169 18.7715 7.89983 17.2247C5.62104 17.1799 3.62437 15.6331 2.90818 13.369C3.71119 13.5259 4.53589 13.5035 5.3172 13.2793C2.82137 12.7413 1.04174 10.4548 1.04174 7.80954C1.04174 7.78712 1.04174 7.7647 1.04174 7.74229C1.77963 8.16821 2.60434 8.4148 3.47245 8.43722C1.10684 6.80077 0.390651 3.5727 1.80134 1.01715C4.51419 4.4918 8.50751 6.59901 12.8047 6.82318C12.3706 4.89531 12.9566 2.87777 14.3456 1.51032C16.4942 -0.596886 19.8798 -0.4848 21.8982 1.75691C23.0918 1.51032 24.2421 1.06198 25.2838 0.411885C24.8932 1.68966 24.0467 2.7881 22.9399 3.48303C24.0033 3.34853 25.0234 3.05711 26 2.60876C25.2838 3.72962 24.394 4.69356 23.3523 5.47816Z" fill="white"/>
</svg>
